<?xml version="1.0" encoding="UTF-8"?>
<svg width="33px" height="33px" viewBox="0 0 33 33" version="1.1" xmlns="http://www.w3.org/2000/svg" xmlns:xlink="http://www.w3.org/1999/xlink">
    <!-- Generator: Sketch 59.1 (86144) - https://sketch.com -->
    <title>beacon</title>
    <desc>Created with Sketch.</desc>
    <defs>
        <circle id="path-1" cx="16.5" cy="16.5" r="16.5"></circle>
    </defs>
    <g id="block-explorer" stroke="none" stroke-width="1" fill="none" fill-rule="evenodd">
        <g id="Update-Copy-10" transform="translate(-270.000000, -1313.000000)">
            <g id="beacon" transform="translate(270.000000, 1313.000000)">
                <g id="iconfinder_cryptocurrency_fintech_cloud_mining_3605682-copy-4">
                    <mask id="mask-2" fill="white">
                        <use xlink:href="#path-1"></use>
                    </mask>
                    <circle stroke="#9AB7B8" stroke-width="0.5" cx="16.5" cy="16.5" r="16.25"></circle>
                </g>
                <g id="iconfinder_block_chain_blockchain_cryptocurrency_3050562" transform="translate(7.000000, 6.000000)" fill="#000000" fill-rule="nonzero">
                    <path d="M19,5.83333333 C19,5.18896485 18.4778646,4.66666667 17.8333333,4.66666667 C17.5143127,4.66666667 17.2255758,4.7949117 17.0151266,5.00227865 L10.6536458,1.33219402 C10.6612956,1.2779948 10.6666667,1.22298177 10.6666667,1.16666667 C10.6666667,0.522298183 10.1445312,0 9.5,0 C8.85563152,0 8.33333333,0.522298183 8.33333333,1.16666667 C8.33333333,1.22298177 8.33869425,1.2779948 8.346344,1.33219402 L1.98502605,5.00227865 C1.77441407,4.7949117 1.48567708,4.66666667 1.16666667,4.66666667 C0.522298183,4.66666667 0,5.18896485 0,5.83333333 C0,6.36148072 0.3515625,6.80744425 0.833333333,6.95100912 L0.833333333,14.2156474 C0.3515625,14.3590495 0,14.8048503 0,15.3333333 C0,15.9773763 0.522298183,16.5 1.16666667,16.5 C1.4305013,16.5 1.67285157,16.4114685 1.868337,16.2638346 L8.346344,20.0011291 C8.33869425,20.0553284 8.33333333,20.1103516 8.33333333,20.1666667 C8.33333333,20.8107096 8.85563152,21.3333333 9.5,21.3333333 C10.1445312,21.3333333 10.6666667,20.8107096 10.6666667,20.1666667 C10.6666667,20.1103516 10.6612956,20.0553284 10.6536458,20.0011291 L17.1318359,16.2638346 C17.3271484,16.4114685 17.5696716,16.5 17.8333333,16.5 C18.4778646,16.5 19,15.9773763 19,15.3333333 C19,14.8048503 18.6486003,14.3590495 18.1666667,14.2156474 L18.1666667,6.95100912 C18.6486003,6.80744425 19,6.36148072 19,5.83333333 Z M9.5,0.666666667 C9.77571615,0.666666667 10,0.890950517 10,1.16666667 C10,1.44238282 9.77571615,1.66666667 9.5,1.66666667 C9.22428385,1.66666667 9,1.44238282 9,1.16666667 C9,0.890950517 9.22428385,0.666666667 9.5,0.666666667 Z M9.515625,8.44825237 C9.23990885,8.44825237 9.015625,8.22396852 9.015625,7.94825237 C9.015625,7.67252605 9.23990885,7.44825237 9.515625,7.44825237 C9.79133097,7.44825237 10.015625,7.67252605 10.015625,7.94825237 C10.015625,8.2239685 9.79133097,8.44825237 9.515625,8.44825237 Z M11.5405274,12.333669 C11.4544271,12.4436849 11.3867086,12.5690104 11.3444011,12.7055664 L7.65559897,12.7055664 C7.61621095,12.5784505 7.55467733,12.4615784 7.47705078,12.3572591 L9.35610962,9.10270182 C9.40836588,9.10986328 9.46142578,9.11491902 9.515625,9.11491902 C9.56981405,9.11491902 9.62271118,9.10986327 9.67496745,9.10286457 L11.5405274,12.333669 Z M0.666666667,5.83333333 C0.666666667,5.55761718 0.890950517,5.33333333 1.16666667,5.33333333 C1.44238282,5.33333333 1.66666667,5.55761718 1.66666667,5.83333333 C1.66666667,6.10904948 1.44238282,6.33333333 1.16666667,6.33333333 C0.890950517,6.33333333 0.666666667,6.10904948 0.666666667,5.83333333 Z M1.16666667,15.8333333 C0.890950517,15.8333333 0.666666667,15.6090495 0.666666667,15.3333333 C0.666666667,15.0576172 0.890950517,14.8333333 1.16666667,14.8333333 C1.44238282,14.8333333 1.66666667,15.0576172 1.66666667,15.3333333 C1.66666667,15.6090495 1.44238282,15.8333333 1.16666667,15.8333333 Z M1.5,14.2156474 L1.5,6.95100912 C1.9819336,6.80744425 2.33333333,6.36148072 2.33333333,5.83333333 C2.33333333,5.74853515 2.32373047,5.66601562 2.30663045,5.58642578 L8.62776692,1.93961588 C8.7701823,2.10009765 8.9555664,2.22151693 9.16666667,2.28434245 L9.16666667,6.83479818 C8.69270833,6.98306275 8.34895833,7.42544557 8.34895833,7.94825237 C8.34895833,8.29767863 8.50341797,8.61051433 8.74689738,8.82438152 L6.93879192,11.9560445 C6.81461588,11.9109599 6.68097942,11.885081 6.54117838,11.885081 C5.89664713,11.885081 5.37451172,12.4073792 5.37451172,13.0517476 C5.37451172,13.1227112 5.38183593,13.1918945 5.39404297,13.2594299 L2.14518228,14.6992188 C1.99609375,14.4694011 1.76854452,14.2955628 1.5,14.2156474 Z M7.04117838,13.0517476 C7.04117838,13.3274638 6.81689453,13.5517476 6.54117838,13.5517476 C6.26546223,13.5517476 6.04117838,13.3274638 6.04117838,13.0517476 C6.04117838,12.7760518 6.26546223,12.5517476 6.54117838,12.5517476 C6.81689453,12.5517476 7.04117838,12.7760518 7.04117838,13.0517476 Z M9.5,20.6666667 C9.22428385,20.6666667 9,20.4423828 9,20.1666667 C9,19.8909505 9.22428385,19.6666667 9.5,19.6666667 C9.77571615,19.6666667 10,19.8909505 10,20.1666667 C10,20.4423828 9.77571615,20.6666667 9.5,20.6666667 Z M10.3723958,19.3937174 C10.1586812,19.1526591 9.84750367,19 9.5,19 C9.15249633,19 8.84146118,19.1526591 8.62776693,19.3937174 L2.26512655,15.7231445 C2.30729167,15.6046448 2.33138022,15.4778646 2.3326823,15.3453776 L5.69612632,13.8546448 C5.90868125,14.0782776 6.20817058,14.2184143 6.5411784,14.2184143 C7.07438153,14.2184143 7.5227763,13.8603516 7.66210938,13.3722331 L11.3378805,13.3722331 C11.4772135,13.8603516 11.9256083,14.2184143 12.4588114,14.2184143 C12.8194987,14.2184143 13.1417643,14.0545146 13.3556315,13.797526 L16.6700846,15.2664286 C16.6687825,15.2887268 16.6666667,15.3107096 16.6666667,15.3333333 C16.6666667,15.4702149 16.6915588,15.6010641 16.7348633,15.7231445 L10.3723958,19.3937174 Z M11.9588115,13.0517476 C11.9588115,12.7760518 12.1830953,12.5517476 12.4588115,12.5517476 C12.7345276,12.5517476 12.9588115,12.7760518 12.9588115,13.0517476 C12.9588115,13.3274638 12.7345276,13.5517476 12.4588115,13.5517476 C12.1830953,13.5517476 11.9588115,13.3274638 11.9588115,13.0517476 Z M16.8977763,14.6383463 L13.6173503,13.1843974 C13.6223958,13.1407776 13.6254781,13.0966797 13.6254781,13.0517476 C13.6254781,12.4073792 13.1033427,11.885081 12.4588114,11.885081 C12.3286133,11.885081 12.203776,11.9073792 12.0867513,11.9467773 L10.2841797,8.82454427 C10.5276693,8.61067708 10.6822917,8.29767863 10.6822917,7.94825235 C10.6822917,7.41406248 10.3230794,6.96499633 9.83333333,6.82649738 L9.83333333,2.28434245 C10.0444336,2.22151693 10.2298177,2.10009765 10.3722331,1.93961588 L16.6933594,5.58642578 C16.6762594,5.66601563 16.6666667,5.74853515 16.6666667,5.83333333 C16.6666667,6.36148072 17.0182292,6.80744425 17.5,6.95100912 L17.5,14.2156474 C17.256012,14.2882487 17.0462138,14.4389648 16.8977763,14.6383463 Z M18.3333333,15.3333333 C18.3333333,15.6090495 18.1090495,15.8333333 17.8333333,15.8333333 C17.5576172,15.8333333 17.3333333,15.6090495 17.3333333,15.3333333 C17.3333333,15.0576172 17.5576172,14.8333333 17.8333333,14.8333333 C18.1090495,14.8333333 18.3333333,15.0576172 18.3333333,15.3333333 Z M17.8333333,6.33333333 C17.5576172,6.33333333 17.3333333,6.10904948 17.3333333,5.83333333 C17.3333333,5.55761718 17.5576172,5.33333333 17.8333333,5.33333333 C18.1090495,5.33333333 18.3333333,5.55761718 18.3333333,5.83333333 C18.3333333,6.10904948 18.1090495,6.33333333 17.8333333,6.33333333 Z" id="Shape"></path>
                </g>
            </g>
        </g>
    </g>
</svg>