<?xml version="1.0" encoding="UTF-8"?>
<svg width="48px" height="40px" viewBox="0 0 48 40" version="1.1" xmlns="http://www.w3.org/2000/svg" xmlns:xlink="http://www.w3.org/1999/xlink">
    <!-- Generator: Sketch 59.1 (86144) - https://sketch.com -->
    <title>shard</title>
    <desc>Created with Sketch.</desc>
    <g id="block-explorer" stroke="none" stroke-width="1" fill="none" fill-rule="evenodd">
        <g id="Explorer" transform="translate(-457.000000, -135.000000)" fill-rule="nonzero">
            <g id="shard" transform="translate(457.000000, 135.000000)">
                <path d="M2.28571429,38.2608696 L2.28571429,1.73913043 C2.28571429,0.77826087 3.30857143,0 4.57142857,0 L43.4285714,0 C44.6914286,0 45.7142857,0.77826087 45.7142857,1.73913043 L45.7142857,38.2608696 C45.7142857,39.2217391 44.6914286,40 43.4285714,40 L4.57142857,40 C3.30857143,40 2.28571429,39.2217391 2.28571429,38.2608696 Z" id="Path" fill="#014E52"></path>
                <path d="M46.8571429,12.173913 L1.14285714,12.173913 C0.512,12.173913 0,11.7843478 0,11.3043478 L0,2.60869565 C0,2.12869565 0.512,1.73913043 1.14285714,1.73913043 L46.8571429,1.73913043 C47.488,1.73913043 48,2.12869565 48,2.60869565 L48,11.3043478 C48,11.7843478 47.488,12.173913 46.8571429,12.173913 Z" id="Path" fill="#BBF6F9"></path>
                <path d="M46.8571429,25.2173913 L1.14285714,25.2173913 C0.512,25.2173913 0,24.8278261 0,24.3478261 L0,15.6521739 C0,15.1721739 0.512,14.7826087 1.14285714,14.7826087 L46.8571429,14.7826087 C47.488,14.7826087 48,15.1721739 48,15.6521739 L48,24.3478261 C48,24.8278261 47.488,25.2173913 46.8571429,25.2173913 Z" id="Path" fill="#76F0F6"></path>
                <path d="M46.8571429,38.2608696 L1.14285714,38.2608696 C0.512,38.2608696 0,37.8713043 0,37.3913043 L0,28.6956522 C0,28.2156522 0.512,27.826087 1.14285714,27.826087 L46.8571429,27.826087 C47.488,27.826087 48,28.2156522 48,28.6956522 L48,37.3913043 C48,37.8713043 47.488,38.2608696 46.8571429,38.2608696 Z" id="Path" fill="#99DCE0"></path>
                <circle id="Oval" fill="#25CDD6" cx="9.5" cy="7.7173913" r="1.5"></circle>
                <circle id="Oval" fill="#00686E" cx="9.5" cy="19.7608696" r="1.5"></circle>
                <circle id="Oval" fill="#00868D" cx="9.5" cy="32.8043478" r="1.5"></circle>
            </g>
        </g>
    </g>
</svg>