<?xml version="1.0" encoding="UTF-8"?>
<svg width="52px" height="40px" viewBox="0 0 52 40" version="1.1" xmlns="http://www.w3.org/2000/svg" xmlns:xlink="http://www.w3.org/1999/xlink">
    <!-- Generator: Sketch 59.1 (86144) - https://sketch.com -->
    <title>Tx</title>
    <desc>Created with Sketch.</desc>
    <g id="block-explorer" stroke="none" stroke-width="1" fill="none" fill-rule="evenodd">
        <g id="Explorer" transform="translate(-678.000000, -135.000000)" fill-rule="nonzero">
            <g id="Tx" transform="translate(678.000000, 135.000000)">
                <path d="M37.0285714,23.074509 L37.0285714,24.8173322 C37.0267222,30.1051915 32.8837554,34.3913705 27.772577,34.3932837 L12.796378,34.3932837 L12.796378,37.1703096 C12.7997531,37.9503252 12.3458897,38.6546537 11.6486347,38.9514366 C11.4249922,39.0436908 11.1859162,39.0892534 10.9451791,39.0857143 C10.4533911,39.0870238 9.98095431,38.8873862 9.63082787,38.5300947 L0.541441331,29.1265104 C0.194803942,28.7686899 -2.0250468e-13,28.2829013 -2.0250468e-13,27.7763012 C-2.0250468e-13,27.2697011 0.194803942,26.7839125 0.541441331,26.426092 L9.63082787,17.0225077 C10.1583645,16.47342 10.9534624,16.3067257 11.6460022,16.6000213 C12.338542,16.8933168 12.792429,17.5889652 12.796378,18.3631409 L12.796378,21.1593187 L35.1773725,21.1593187 C36.1984956,21.1624738 37.0255218,22.0180883 37.0285714,23.074509 Z" id="Path" fill="#BBF6F9"></path>
                <path d="M50.8871983,12.6588197 L41.7977948,22.0544974 C41.4495248,22.4167226 40.9774598,22.6229077 40.4834411,22.6285714 C39.4674166,22.6128503 38.6474475,21.7652517 38.6322388,20.7149914 L38.6322388,17.9211647 L16.2512024,17.9211647 C15.2300774,17.9180122 14.4030497,17.0631172 14.4,16.0075847 L14.4,14.2662269 C14.4018901,8.98283113 18.5448407,4.70028069 23.6560118,4.69832692 L38.6322388,4.69832692 L38.6322388,1.92363593 C38.6286206,1.14659122 39.0797583,0.444372391 39.7740171,0.146399804 C40.4682758,-0.151572783 41.2679078,0.013821572 41.7977948,0.564994138 L50.8871983,9.96067189 C51.2337954,10.318214 51.4285714,10.8035858 51.4285714,11.3097458 C51.4285714,11.8159058 51.2337954,12.3012776 50.8871983,12.6588197 Z" id="Path" fill="#76F0F6"></path>
            </g>
        </g>
    </g>
</svg>