<?xml version="1.0" encoding="UTF-8"?>
<svg width="45px" height="42px" viewBox="0 0 45 42" version="1.1" xmlns="http://www.w3.org/2000/svg" xmlns:xlink="http://www.w3.org/1999/xlink">
    <!-- Generator: Sketch 59.1 (86144) - https://sketch.com -->
    <title>iconfinder_backpropagation_neural_network_2192310</title>
    <desc>Created with Sketch.</desc>
    <g id="block-explorer" stroke="none" stroke-width="1" fill="none" fill-rule="evenodd">
        <g id="Update-Copy-10" transform="translate(-225.000000, -132.000000)" fill-rule="nonzero">
            <g id="iconfinder_backpropagation_neural_network_2192310" transform="translate(226.000000, 133.000000)">
                <line x1="18.2238095" y1="36.0047619" x2="24.6333333" y2="36.0047619" id="Path" stroke="#25CDD6" stroke-width="2" fill-opacity="0" fill="#000000"></line>
                <line x1="5.85238095" y1="9.5847619" x2="12.0333333" y2="5.36857143" id="Path" stroke="#25CDD6" stroke-width="2" fill-opacity="0" fill="#000000"></line>
                <line x1="5.85238095" y1="13.6838095" x2="12.0333333" y2="18.2514286" id="Path" stroke="#25CDD6" stroke-width="2" fill-opacity="0" fill="#000000"></line>
                <line x1="5.85238095" y1="26.2152381" x2="12.527619" y2="21.5304762" id="Path" stroke="#25CDD6" stroke-width="2" fill-opacity="0" fill="#000000"></line>
                <line x1="5.85238095" y1="29.6114286" x2="12.527619" y2="34.647619" id="Path" stroke="#25CDD6" stroke-width="2" fill-opacity="0" fill="#000000"></line>
                <line x1="30.0952381" y1="33.7866667" x2="36.6533333" y2="29.6114286" id="Path" stroke="#25CDD6" stroke-width="2" fill-opacity="0" fill="#000000"></line>
                <line x1="30.0952381" y1="21.5304762" x2="36.6533333" y2="26.2152381" id="Path" stroke="#25CDD6" stroke-width="2" fill-opacity="0" fill="#000000"></line>
                <line x1="30.0952381" y1="18.2514286" x2="36.6533333" y2="13.6838095" id="Path" stroke="#25CDD6" stroke-width="2" fill-opacity="0" fill="#000000"></line>
                <line x1="30.0952381" y1="5.36857143" x2="36.6533333" y2="10.1695238" id="Path" stroke="#25CDD6" stroke-width="2" fill-opacity="0" fill="#000000"></line>
                <line x1="17.3161905" y1="33.7866667" x2="25.772381" y2="22.872381" id="Path" stroke="#25CDD6" stroke-width="2" fill-opacity="0" fill="#000000"></line>
                <line x1="17.1771429" y1="22.872381" x2="25.6561905" y2="33.0752381" id="Path" stroke="#25CDD6" stroke-width="2" fill-opacity="0" fill="#000000"></line>
                <line x1="18.2238095" y1="19.8628571" x2="24.6333333" y2="19.8628571" id="Path" stroke="#25CDD6" stroke-width="2" fill-opacity="0" fill="#000000"></line>
                <line x1="18.2238095" y1="3.89619048" x2="24.6333333" y2="3.80380952" id="Path" stroke="#25CDD6" stroke-width="2" fill-opacity="0" fill="#000000"></line>
                <line x1="16.84" y1="16.6819048" x2="25.772381" y2="6.11428571" id="Path" stroke="#25CDD6" stroke-width="2" fill-opacity="0" fill="#000000"></line>
                <line x1="17.1314286" y1="6.11428571" x2="25.772381" y2="16.6819048" id="Path" stroke="#25CDD6" stroke-width="2" fill-opacity="0" fill="#000000"></line>
                <g id="Group" transform="translate(11.428571, 16.190476)">
                    <path d="M5.00095238,6.39428571 C3.45047619,7.11333333 1.61047619,6.43904762 0.892380952,4.88761905 C0.173333333,3.33714286 0.847619048,1.49714286 2.39904762,0.779047619 C3.94952381,0.06 5.78952381,0.735238095 6.50761905,2.28571429 C7.22666667,3.83619048 6.55142857,5.67619048 5.00095238,6.39428571 Z" id="Path" fill="#FFFFFF"></path>
                    <path d="M5.00095238,6.39428571 C3.45047619,7.11333333 1.61047619,6.43904762 0.892380952,4.88761905 C0.173333333,3.33714286 0.847619048,1.49714286 2.39904762,0.779047619 C3.94952381,0.06 5.78952381,0.735238095 6.50761905,2.28571429 C7.22666667,3.83619048 6.55142857,5.67619048 5.00095238,6.39428571 Z" id="Path" stroke="#101111" stroke-width="2" fill-opacity="0" fill="#000000"></path>
                </g>
                <g id="Group" transform="translate(11.428571, 0.000000)">
                    <path d="M2.74380952,6.76190476 C1.11809524,6.23428571 0.228571429,4.48857143 0.756190476,2.86285714 C1.2847619,1.23714286 3.03047619,0.347619048 4.65619048,0.875238095 C6.28095238,1.40285714 7.17142857,3.14857143 6.64285714,4.77428571 C6.1152381,6.4 4.36952381,7.28952381 2.74380952,6.76190476 Z" id="Path" fill="#FFFFFF"></path>
                    <path d="M2.74380952,6.76190476 C1.11809524,6.23428571 0.228571429,4.48857143 0.756190476,2.86285714 C1.2847619,1.23714286 3.03047619,0.347619048 4.65619048,0.875238095 C6.28095238,1.40285714 7.17142857,3.14857143 6.64285714,4.77428571 C6.1152381,6.4 4.36952381,7.28952381 2.74380952,6.76190476 Z" id="Path" stroke="#101111" stroke-width="2" fill-opacity="0" fill="#000000"></path>
                </g>
                <g id="Group" transform="translate(11.428571, 32.380952)">
                    <path d="M5.00095238,6.59714286 C3.45047619,7.31619048 1.61047619,6.64190476 0.892380952,5.09047619 C0.173333333,3.54 0.847619048,1.7 2.39904762,0.981904762 C3.94952381,0.262857143 5.78952381,0.938095238 6.50761905,2.48857143 C7.22666667,4.03904762 6.55142857,5.87904762 5.00095238,6.59714286 Z" id="Path" fill="#FFFFFF"></path>
                    <path d="M5.00095238,6.59714286 C3.45047619,7.31619048 1.61047619,6.64190476 0.892380952,5.09047619 C0.173333333,3.54 0.847619048,1.7 2.39904762,0.981904762 C3.94952381,0.262857143 5.78952381,0.938095238 6.50761905,2.48857143 C7.22666667,4.03904762 6.55142857,5.87904762 5.00095238,6.59714286 Z" id="Path" stroke="#101111" stroke-width="2" fill-opacity="0" fill="#000000"></path>
                </g>
                <g id="Group" transform="translate(23.809524, 16.190476)">
                    <path d="M5.22,6.39428571 C3.66952381,7.11333333 1.82952381,6.43904762 1.11142857,4.88761905 C0.392380952,3.33714286 1.06761905,1.49714286 2.61809524,0.779047619 C4.16857143,0.06 6.00857143,0.735238095 6.72666667,2.28571429 C7.44571429,3.83619048 6.77142857,5.67619048 5.22,6.39428571 Z" id="Path" fill="#FFFFFF"></path>
                    <path d="M5.22,6.39428571 C3.66952381,7.11333333 1.82952381,6.43904762 1.11142857,4.88761905 C0.392380952,3.33714286 1.06761905,1.49714286 2.61809524,0.779047619 C4.16857143,0.06 6.00857143,0.735238095 6.72666667,2.28571429 C7.44571429,3.83619048 6.77142857,5.67619048 5.22,6.39428571 Z" id="Path" stroke="#101111" stroke-width="2" fill-opacity="0" fill="#000000"></path>
                </g>
                <g id="Group" transform="translate(23.809524, 0.000000)">
                    <path d="M2.96285714,6.76190476 C1.33809524,6.23428571 0.447619048,4.48857143 0.976190476,2.86285714 C1.50380952,1.23714286 3.24952381,0.347619048 4.8752381,0.875238095 C6.50095238,1.40285714 7.39047619,3.14857143 6.86285714,4.77428571 C6.33428571,6.4 4.58857143,7.28952381 2.96285714,6.76190476 Z" id="Path" fill="#FFFFFF"></path>
                    <path d="M2.96285714,6.76190476 C1.33809524,6.23428571 0.447619048,4.48857143 0.976190476,2.86285714 C1.50380952,1.23714286 3.24952381,0.347619048 4.8752381,0.875238095 C6.50095238,1.40285714 7.39047619,3.14857143 6.86285714,4.77428571 C6.33428571,6.4 4.58857143,7.28952381 2.96285714,6.76190476 Z" id="Path" stroke="#101111" stroke-width="2" fill-opacity="0" fill="#000000"></path>
                </g>
                <g id="Group" transform="translate(23.809524, 32.380952)">
                    <path d="M5.22,6.59714286 C3.66952381,7.31619048 1.82952381,6.64190476 1.11142857,5.09047619 C0.392380952,3.54 1.06761905,1.7 2.61809524,0.981904762 C4.16857143,0.262857143 6.00857143,0.938095238 6.72666667,2.48857143 C7.44571429,4.03904762 6.77142857,5.87904762 5.22,6.59714286 Z" id="Path" fill="#FFFFFF"></path>
                    <path d="M5.22,6.59714286 C3.66952381,7.31619048 1.82952381,6.64190476 1.11142857,5.09047619 C0.392380952,3.54 1.06761905,1.7 2.61809524,0.981904762 C4.16857143,0.262857143 6.00857143,0.938095238 6.72666667,2.48857143 C7.44571429,4.03904762 6.77142857,5.87904762 5.22,6.59714286 Z" id="Path" stroke="#101111" stroke-width="2" fill-opacity="0" fill="#000000"></path>
                </g>
                <g id="Group" transform="translate(35.238095, 23.809524)">
                    <path d="M5.17238095,6.7552381 C3.62095238,7.47333333 1.78190476,6.79904762 1.06285714,5.24857143 C0.344761905,3.69714286 1.01904762,1.85809524 2.56952381,1.13904762 C4.12,0.420952381 5.96,1.0952381 6.67904762,2.64571429 C7.39714286,4.19619048 6.72285714,6.03619048 5.17238095,6.7552381 Z" id="Path" fill="#FFFFFF"></path>
                    <path d="M5.17238095,6.7552381 C3.62095238,7.47333333 1.78190476,6.79904762 1.06285714,5.24857143 C0.344761905,3.69714286 1.01904762,1.85809524 2.56952381,1.13904762 C4.12,0.420952381 5.96,1.0952381 6.67904762,2.64571429 C7.39714286,4.19619048 6.72285714,6.03619048 5.17238095,6.7552381 Z" id="Path" stroke="#101111" stroke-width="2" fill-opacity="0" fill="#000000"></path>
                </g>
                <g id="Group" transform="translate(35.238095, 8.571429)">
                    <path d="M2.9152381,6.16952381 C1.28952381,5.64190476 0.4,3.89619048 0.927619048,2.27047619 C1.4552381,0.644761905 3.20095238,-0.244761905 4.82666667,0.282857143 C6.45238095,0.811428571 7.34190476,2.55714286 6.81428571,4.18285714 C6.28666667,5.80761905 4.54095238,6.69809524 2.9152381,6.16952381 Z" id="Path" fill="#FFFFFF"></path>
                    <path d="M2.9152381,6.16952381 C1.28952381,5.64190476 0.4,3.89619048 0.927619048,2.27047619 C1.4552381,0.644761905 3.20095238,-0.244761905 4.82666667,0.282857143 C6.45238095,0.811428571 7.34190476,2.55714286 6.81428571,4.18285714 C6.28666667,5.80761905 4.54095238,6.69809524 2.9152381,6.16952381 Z" id="Path" stroke="#000000" stroke-width="2" fill-opacity="0" fill="#000000"></path>
                </g>
                <g id="Group" transform="translate(0.000000, 24.761905)">
                    <path d="M4.57238095,6.02 C3.02190476,6.73809524 1.18190476,6.06380952 0.463809524,4.51333333 C-0.255238095,2.96285714 0.419047619,1.12285714 1.97047619,0.403809524 C3.52095238,-0.314285714 5.36095238,0.36 6.07904762,1.91047619 C6.79809524,3.46190476 6.12285714,5.30095238 4.57238095,6.02 Z" id="Path" fill="#FFFFFF"></path>
                    <path d="M4.57238095,6.02 C3.02190476,6.73809524 1.18190476,6.06380952 0.463809524,4.51333333 C-0.255238095,2.96285714 0.419047619,1.12285714 1.97047619,0.403809524 C3.52095238,-0.314285714 5.36095238,0.36 6.07904762,1.91047619 C6.79809524,3.46190476 6.12285714,5.30095238 4.57238095,6.02 Z" id="Path" stroke="#000000" stroke-width="2" fill-opacity="0" fill="#000000"></path>
                </g>
                <g id="Group" transform="translate(0.000000, 8.571429)">
                    <path d="M2.3152381,6.38761905 C0.68952381,5.85904762 -0.2,4.11333333 0.327619048,2.48761905 C0.856190476,0.862857143 2.60190476,-0.0276190476 4.22761905,0.500952381 C5.85333333,1.02857143 6.74285714,2.77428571 6.21428571,4.4 C5.68666667,6.02571429 3.94095238,6.9152381 2.3152381,6.38761905 Z" id="Path" fill="#FFFFFF"></path>
                    <path d="M2.3152381,6.38761905 C0.68952381,5.85904762 -0.2,4.11333333 0.327619048,2.48761905 C0.856190476,0.862857143 2.60190476,-0.0276190476 4.22761905,0.500952381 C5.85333333,1.02857143 6.74285714,2.77428571 6.21428571,4.4 C5.68666667,6.02571429 3.94095238,6.9152381 2.3152381,6.38761905 Z" id="Path" stroke="#000000" stroke-width="2" fill-opacity="0" fill="#000000"></path>
                </g>
            </g>
        </g>
    </g>
</svg>