<?xml version="1.0" encoding="UTF-8"?>
<svg width="36px" height="40px" viewBox="0 0 36 40" version="1.1" xmlns="http://www.w3.org/2000/svg" xmlns:xlink="http://www.w3.org/1999/xlink">
    <!-- Generator: Sketch 59.1 (86144) - https://sketch.com -->
    <title>Blocks</title>
    <desc>Created with Sketch.</desc>
    <g id="block-explorer" stroke="none" stroke-width="1" fill="none" fill-rule="evenodd">
        <g id="Explorer" transform="translate(-891.000000, -135.000000)" fill-rule="nonzero">
            <g id="Blocks" transform="translate(891.000000, 135.000000)">
                <path d="M35.306187,9.28105521 L35.306187,28.8362217 C35.306187,29.2733683 34.9738789,29.8757034 34.6175845,30.0753204 L18.3677125,39.1915734 C18.3677125,39.1764864 18.3677125,39.1575291 18.3677125,39.13896 L18.3677125,19.5834073 C18.3677125,19.1369752 18.6951858,18.5477939 19.0563151,18.3435341 L35.306187,9.22844185 C35.306187,9.24275637 35.306187,9.26209792 35.306187,9.28105521 Z" id="Path" fill="#76F0F6"></path>
                <path d="M33.4914471,8.61063352 L18.3630718,17.0994064 C18.1019441,17.2460238 17.8593855,17.4607298 17.6549316,17.7172147 C17.4469976,17.4649844 17.2086936,17.2460238 16.9471796,17.0994064 L1.81416155,8.61063352 L17.6549336,0 L33.4914471,8.61063352 Z" id="Path" fill="#BBF6F9"></path>
                <path d="M16.9429231,19.5834073 L16.9429231,39.13896 C16.9429231,39.1575291 16.9382803,39.1764844 16.9382803,39.1915734 L0.688022194,30.0753204 C0.336370543,29.8757034 -6.39488462e-14,29.2733683 -6.39488462e-14,28.8362217 L-6.39488462e-14,9.28105521 C-6.39488462e-14,9.2620999 -6.39488462e-14,9.24275637 -6.39488462e-14,9.22844185 L16.2489034,18.3435341 C16.6104209,18.5431511 16.9429231,19.1369752 16.9429231,19.5834073 Z" id="Path" fill="#99DCE0"></path>
            </g>
        </g>
    </g>
</svg>