<?xml version="1.0" encoding="UTF-8"?>
<svg width="33px" height="33px" viewBox="0 0 33 33" version="1.1" xmlns="http://www.w3.org/2000/svg" xmlns:xlink="http://www.w3.org/1999/xlink">
    <!-- Generator: Sketch 59.1 (86144) - https://sketch.com -->
    <title>iconfinder_cryptocurrency_fintech_cloud_mining_3605682 copy 10</title>
    <desc>Created with Sketch.</desc>
    <defs>
        <circle id="path-1" cx="16.5" cy="16.5" r="16.5"></circle>
    </defs>
    <g id="block-explorer" stroke="none" stroke-width="1" fill="none" fill-rule="evenodd">
        <g id="Update-Copy-10" transform="translate(-270.000000, -512.000000)">
            <g id="Group-33-Copy" transform="translate(241.000000, 374.000000)">
                <g id="iconfinder_cryptocurrency_fintech_cloud_mining_3605682-copy-10" transform="translate(29.000000, 138.000000)">
                    <mask id="mask-2" fill="white">
                        <use xlink:href="#path-1"></use>
                    </mask>
                    <circle stroke="#101111" stroke-width="0.5" cx="16.5" cy="16.5" r="16.25"></circle>
                    <g id="iconfinder_cryptocurrency_fintech_cloud_mining_3605682" mask="url(#mask-2)" fill="#101111" fill-rule="nonzero">
                        <g transform="translate(2.750000, 7.333333)" id="Path">
                            <polygon points="22.871733 7.11521759 22.871733 7.11521759 22.8296343 7.19046914"></polygon>
                            <polygon points="10.238946 2.63117284 17.8293534 2.63117284 19.558034 5.7406929 19.8600926 5.20077623 18.1387793 2.10493827 9.92952006 2.10493827 5.83383642 9.47222222 6.16799537 10.0726559 6.47110648 9.53537037 6.43584877 9.47222222 6.47110648 9.40907407 6.47110648 9.40907407"></polygon>
                            <polygon points="9.0365 0.526234568 19.0317994 0.526234568 20.7536389 3.60365432 21.0546451 3.06479012 19.3406991 0 8.72812654 0 3.42999691 9.47222222 4.96133951 12.2096944 5.26392438 11.6739877 4.03200926 9.47222222"></polygon>
                            <polygon points="21.5850895 9.38697222 21.6319244 9.47222222 17.8293534 16.3132716 10.238946 16.3132716 8.51079167 13.2037515 8.20925926 13.7436682 9.92952006 16.8395062 18.1387793 16.8395062 22.234463 9.47222222 21.8892531 8.8507392"></polygon>
                            <polygon points="22.7943765 7.25203858 24.0362901 9.47222222 19.0317994 18.4182099 9.0365 18.4182099 7.31518673 15.3407901 7.01365432 15.8796543 8.72812654 18.9444444 19.3406991 18.9444444 24.6388287 9.47222222 23.0980139 6.71685802"></polygon>
                            <polygon points="24.500429 2.10493827 20.3268627 9.47222222 20.682071 10.0984414 20.9814985 9.55957716 20.9320324 9.47222222 24.8072238 2.63117284 28.4166667 2.63117284 28.4166667 2.10493827"></polygon>
                            <polygon points="24.8072238 16.3132716 23.1006451 13.3005787 22.7996389 13.8378642 24.500429 16.8395062 28.4166667 16.8395062 28.4166667 16.3132716"></polygon>
                            <polygon points="23.6805556 18.4182099 21.9592423 15.3407901 21.6577099 15.8801806 23.3721821 18.9444444 28.4166667 18.9444444 28.4166667 18.4182099"></polygon>
                            <polygon points="23.3721821 0 18.0740525 9.47222222 19.5564552 12.123392 19.8569352 11.5824228 18.6760648 9.47222222 23.6805556 0.526234568 28.4166667 0.526234568 28.4166667 0"></polygon>
                            <polygon points="4.38774383 0.526234568 6.1090571 3.60365432 6.41111574 3.06479012 4.69716975 0 0 0 0 0.526234568"></polygon>
                            <polygon points="9.99529938 9.47222222 8.51237037 6.82105247 8.2113642 7.36149537 9.39223457 9.47222222 4.38774383 18.4182099 0 18.4182099 0 18.9444444 4.69716975 18.9444444"></polygon>
                            <polygon points="3.24844599 2.63117284 4.95923457 5.66070525 5.25971451 5.12289352 3.55576698 2.10493827 0 2.10493827 0 2.63117284"></polygon>
                            <polygon points="3.55576698 16.8395062 7.71565123 9.47222222 7.37465123 8.86810494 7.0741713 9.40749537 7.11153395 9.47222222 3.24844599 16.3132716 0 16.3132716 0 16.8395062"></polygon>
                        </g>
                    </g>
                </g>
            </g>
        </g>
    </g>
</svg>