<?xml version="1.0" encoding="UTF-8"?>
<svg width="27px" height="31px" viewBox="0 0 27 31" version="1.1" xmlns="http://www.w3.org/2000/svg" xmlns:xlink="http://www.w3.org/1999/xlink">
    <!-- Generator: Sketch 52.3 (67297) - http://www.bohemiancoding.com/sketch -->
    <title>Group 14</title>
    <desc>Created with Sketch.</desc>
    <defs>
        <polygon id="path-1" points="0.029903686 0.00729967427 20.8383963 0.00729967427 20.8383963 6.28771068 0.029903686 6.28771068"></polygon>
    </defs>
    <g id="EXCHANGE" stroke="none" stroke-width="1" fill="none" fill-rule="evenodd">
        <g id="Home" transform="translate(-46.000000, -9.000000)">
            <g id="Group-14" transform="translate(46.000000, 9.000000)">
                <path d="M24.297555,23.5551958 C23.2056821,23.5551958 22.3205746,24.4403033 22.3205746,25.5322642 C22.3205746,26.6241371 23.2056821,27.5092446 24.297555,27.5092446 C25.389428,27.5092446 26.2745355,26.6241371 26.2745355,25.5322642 C26.2745355,24.4403033 25.389428,23.5551958 24.297555,23.5551958" id="Fill-1" fill="#FFFFFF"></path>
                <path d="M4.83487329,8.63033453 C5.92674625,8.63033453 6.81185375,7.74522704 6.81185375,6.65335407 C6.81185375,5.56139316 5.92674625,4.67628567 4.83487329,4.67628567 C3.74291238,4.67628567 2.85780489,5.56139316 2.85780489,6.65335407 C2.85780489,7.74522704 3.74291238,8.63033453 4.83487329,8.63033453" id="Fill-3" fill="#FFFFFF"></path>
                <g id="Group-7" transform="translate(6.156352, 0.080648)">
                    <mask id="mask-2" fill="white">
                        <use xlink:href="#path-1"></use>
                    </mask>
                    <g id="Clip-6"></g>
                    <path d="M20.8348622,5.74312866 C20.8240446,5.65280619 20.7886896,5.57163029 20.7368003,5.50452606 C20.7360088,5.502943 20.7358329,5.50127199 20.7343378,5.49977687 C20.7321391,5.49749023 20.728885,5.49397231 20.7264225,5.49124593 C20.7208818,5.48464984 20.7151651,5.47822964 20.7092726,5.47189739 C20.5123573,5.22916124 20.30867,4.99170195 20.0967156,4.76101466 C20.0934616,4.75749674 20.0903834,4.75380293 20.0871293,4.75019707 L20.0870414,4.75063681 C18.5785593,3.15587785 16.7026309,1.86339577 14.5209958,1.02340554 C9.69212932,-0.835812704 4.4860544,-0.0565944625 0.498057655,2.65026547 L0.499025081,2.65184853 C0.421630945,2.7032101 0.343709121,2.75386808 0.267194463,2.80646091 C0.25980684,2.81094625 0.252419218,2.8154316 0.24529544,2.82026873 C0.242129316,2.82211564 0.237995765,2.82457818 0.235181433,2.82616124 C0.233334528,2.82721661 0.23280684,2.82871173 0.23157557,2.83003094 C0.162712378,2.87980945 0.10572215,2.94779316 0.0697514658,3.0314316 C-0.0366654723,3.27856515 0.0774029316,3.56509935 0.324536482,3.67151629 C0.472640717,3.7352785 0.634552769,3.71935993 0.763660261,3.64363681 C0.764012052,3.64372476 0.764363844,3.64486808 0.764627687,3.64469218 C0.775621173,3.63967915 0.998832899,3.48374756 0.998832899,3.48374756 L0.996810098,3.4838355 C1.0072759,3.47662378 1.01765375,3.4693241 1.02829544,3.46237622 L1.02829544,3.46088111 C1.03489153,3.45692345 1.04095993,3.45454886 1.04764397,3.44979967 C1.0943443,3.41743485 1.13743876,3.38797231 1.17842248,3.36018078 C4.89483616,0.898959283 9.70602508,0.206193811 14.1734257,1.9262785 C16.2616603,2.73029805 18.0520153,3.9760798 19.4803769,5.51560749 L19.490315,5.5194772 C19.5584746,5.59810261 19.657416,5.71507329 19.7801912,5.86775081 C19.7852922,5.87417101 19.7904811,5.87812866 19.79567,5.88384528 L19.7953182,5.88525244 C19.8034094,5.89492671 19.8112368,5.90486482 19.819328,5.91462704 L19.8173932,5.91392345 C19.8173932,5.91392345 19.9871326,6.12631759 19.9962792,6.1342329 C19.996543,6.13449674 19.9971586,6.13352932 19.9975104,6.13352932 C20.0997938,6.24249674 20.2503606,6.30344463 20.4101619,6.28418404 C20.5785821,6.26386808 20.7162205,6.15973779 20.7869306,6.01866938 C20.8281782,5.93626221 20.8467352,5.8414544 20.8348622,5.74312866" id="Fill-5" fill="#A6BED3" mask="url(#mask-2)"></path>
                </g>
                <path d="M22.3433795,27.887315 C22.1917573,27.8030609 22.0140147,27.8118557 21.8740016,27.893999 L21.8739137,27.8930316 C21.8739137,27.8930316 21.679285,27.9974257 21.3276694,28.1563476 C21.3379593,28.1516863 21.3467541,28.1475528 21.3567801,28.1430674 L21.3551091,28.1402531 C21.3166759,28.1585463 21.2788583,28.1778068 21.2403371,28.1957482 C21.1858094,28.2212531 21.1307541,28.2455267 21.0759625,28.2702401 C17.7231254,29.7860218 13.7907117,30.0153899 10.0939104,28.5920414 C2.76433388,25.7699697 -0.902741042,17.5110479 1.91933062,10.1814713 C1.9514316,10.0980967 1.98529153,10.0158655 2.01897557,9.93345831 C2.01932736,9.9336342 2.01985505,9.93398599 2.02003094,9.9338101 C2.02653909,9.92369609 2.13005375,9.67278078 2.13005375,9.67278078 L2.12838274,9.67401205 C2.13339577,9.66231498 2.13814495,9.65061792 2.14324593,9.63900879 L2.14307003,9.638657 C2.14465309,9.63496319 2.14623616,9.63135733 2.14781922,9.62766352 C2.14957818,9.62458534 2.15133713,9.62177101 2.15283225,9.6180772 C2.16268241,9.59441922 2.17174104,9.57339967 2.18115147,9.55106091 C2.1962785,9.51667329 2.21070195,9.48167003 2.22618078,9.44737036 L2.22538925,9.44710651 C2.33277362,9.1985658 2.40084528,9.06145505 2.40084528,9.06145505 L2.3997899,9.0613671 C2.47815147,8.91836384 2.48158143,8.73912606 2.39249023,8.58864723 C2.25819381,8.36174169 1.96523941,8.28672215 1.73842182,8.42110651 C1.65135342,8.47264397 1.58679967,8.54766352 1.54775081,8.63332476 L1.54722313,8.63244528 C1.47888762,8.76999577 1.41319055,8.90868958 1.34934039,9.04817492 L1.34573453,9.04659186 C1.27810261,9.19663094 1.21328502,9.34869283 1.14996254,9.5018101 C1.14688436,9.5080544 1.14380619,9.51438664 1.14099186,9.52089479 C1.13932085,9.52414886 1.13712215,9.52837036 1.13571498,9.53127264 C1.13474756,9.53320749 1.13509935,9.53470261 1.13474756,9.53646156 C1.13263681,9.54173844 1.13140554,9.54745505 1.12947068,9.55290782 C1.09121336,9.64622052 1.05286808,9.73935733 1.01645765,9.8339013 C-1.99725244,17.6612629 1.91889088,26.4811163 9.74625244,29.4948264 C13.8387313,31.0705007 18.2017378,30.7502824 21.8651189,28.9683704 L21.8621287,28.9637971 C21.7328453,29.0271195 21.6027704,29.0891228 21.4719039,29.1490153 C21.758614,29.017885 22.0419821,28.8789274 22.320601,28.7299436 L22.3197215,28.729416 C22.4037997,28.6879925 22.4766205,28.6215919 22.5256954,28.5333801 C22.6533958,28.3034844 22.5718681,28.0143117 22.3433795,27.887315" id="Fill-8" fill="#FFFFFF"></path>
                <path d="M7.39270554,4.51374919 C7.38989121,4.51533225 7.38628534,4.51753094 7.3838228,4.51893811 C7.38215179,4.51990554 7.38171205,4.52122476 7.38065668,4.52236808 C7.31997264,4.56616612 7.26984235,4.62597068 7.23809316,4.69975896 C7.14442866,4.91734202 7.24486515,5.1696645 7.46244821,5.26332899 C7.59287492,5.31943974 7.73543844,5.30545603 7.84915505,5.23879153 C7.84941889,5.23887948 7.84977068,5.23984691 7.85003453,5.23975896 C7.85970879,5.23536156 8.05627231,5.09798697 8.05627231,5.09798697 L8.05442541,5.09807492 C8.06365993,5.09174267 8.07280651,5.08532248 8.08212899,5.07916612 L8.08221694,5.07784691 C8.08793355,5.07432899 8.09329837,5.07230619 8.09927883,5.06817264 C8.14035049,5.03958958 8.17825603,5.01364495 8.21440261,4.98919544 C11.4869433,2.82189577 15.7235687,2.21188925 19.6573896,3.72652769 C21.4962039,4.43450814 23.0727577,5.53157003 24.3304124,6.88711075 L24.3392072,6.89054072 C24.3992756,6.9597557 24.4864319,7.06283062 24.5944319,7.19721498 C24.5990052,7.2029316 24.6035785,7.20636156 24.6080638,7.21137459 L24.6078,7.21260586 C24.6149238,7.22122476 24.6218717,7.2299316 24.6289075,7.23855049 L24.6272365,7.23793485 C24.6272365,7.23793485 24.7767479,7.425 24.7846632,7.43194788 C24.784927,7.43212378 24.7855427,7.43133225 24.7858065,7.43133225 C24.8759531,7.52728339 25.0084906,7.5809316 25.1492072,7.56395765 C25.2974873,7.54610423 25.4186795,7.45437459 25.4809466,7.33010423 C25.5172691,7.25763518 25.5336274,7.17408469 25.5232495,7.08754397 C25.5135752,7.00795114 25.4825296,6.93644951 25.4367967,6.87734853 C25.4360932,6.87602932 25.4360052,6.87462215 25.434686,6.87321498 C25.4328391,6.87119218 25.4298489,6.86811401 25.4276502,6.86573941 C25.422813,6.85993485 25.4178,6.85430619 25.4126111,6.84867752 C25.2391779,6.63496417 25.0597642,6.4258241 24.8732267,6.22275244 C24.8703244,6.21958632 24.867686,6.21633225 24.8647837,6.21316612 L24.8646958,6.21360586 C23.5363309,4.80925407 21.8844938,3.67112052 19.9634482,2.93147883 C15.711256,1.29432899 11.1269726,1.98041042 7.61530163,4.36406189 L7.61618111,4.36538111 C7.5480215,4.41067427 7.4793342,4.45526384 7.41196612,4.50161238 C7.40545798,4.50557003 7.39903779,4.50952769 7.39270554,4.51374919" id="Fill-10" fill="#FFFFFF"></path>
                <path d="M10.3378866,27.9314648 C13.9415511,29.3189306 17.7834664,29.0369697 21.0093068,27.4678915 L21.0067564,27.4638459 C20.8927759,27.5196049 20.7782678,27.5742205 20.6629681,27.6269013 C20.9154664,27.5115137 21.1649746,27.3890902 21.4103492,27.257872 L21.4097336,27.2574322 C21.4836098,27.2209339 21.5478117,27.1624485 21.5909941,27.0847906 C21.7033915,26.8824225 21.6316261,26.6277254 21.4304013,26.5159436 C21.2969844,26.4418036 21.1404371,26.449455 21.0172221,26.5218362 L21.0170463,26.5209567 C21.0170463,26.5209567 20.8457238,26.6129502 20.5360593,26.7528752 C20.5451179,26.7487417 20.5528573,26.7451358 20.5616521,26.7410902 L20.560157,26.7386277 C20.526473,26.7548101 20.4930528,26.7716961 20.4591049,26.7875267 C20.4110853,26.8100414 20.3626261,26.8313248 20.3144306,26.8531358 C17.3620202,28.1879208 13.8993362,28.3898492 10.6439453,27.136416 C4.18980195,24.6514485 0.960707492,17.3789502 3.44567492,10.9248068 C3.47399414,10.8512824 3.50380847,10.7789893 3.53344691,10.7064322 C3.5337987,10.7065202 3.53432638,10.706784 3.53441433,10.7066081 C3.54013094,10.6977254 3.6313329,10.4768883 3.6313329,10.4768883 L3.62983779,10.4778557 C3.63423518,10.4676537 3.63845668,10.4573638 3.64294202,10.4470739 L3.64276612,10.4468101 C3.64417329,10.443556 3.64558046,10.440302 3.64689967,10.4371358 C3.64848274,10.4344094 3.6500658,10.431859 3.65138502,10.4286928 C3.66000391,10.4078492 3.66800717,10.3892922 3.67618632,10.3696798 C3.68964235,10.3393378 3.70230684,10.308556 3.71593876,10.2783899 L3.71532313,10.2780381 C3.80977915,10.0593117 3.86975961,9.93855928 3.86975961,9.93855928 L3.86888013,9.93847134 C3.93783127,9.81252997 3.9408215,9.65466352 3.86237199,9.52221401 C3.74408208,9.32239642 3.48621889,9.25634756 3.2864013,9.37463746 C3.20971075,9.42001857 3.15289642,9.48615537 3.11850879,9.56152671 L3.11806906,9.56073518 C3.0579127,9.68183941 3.000043,9.80399902 2.9438443,9.92686221 L2.94067818,9.92545505 C2.88113746,10.0575528 2.82397134,10.1914974 2.76830033,10.3262336 C2.76548599,10.3318622 2.76284756,10.3374029 2.76029707,10.3431195 C2.7588899,10.3459339 2.75695505,10.3497156 2.75572378,10.3521782 C2.7548443,10.3538492 2.75510814,10.3552564 2.7548443,10.3567515 C2.75299739,10.3615007 2.75185407,10.3665137 2.75018306,10.3712629 C2.71658697,10.4534941 2.68272704,10.5354616 2.65071401,10.6186603 C-0.00311335505,17.5112238 3.44532313,25.2776375 10.3378866,27.9314648" id="Fill-12" fill="#FFFFFF"></path>
            </g>
        </g>
    </g>
</svg>