<?xml version="1.0" encoding="UTF-8"?>
<svg width="225px" height="27px" viewBox="0 0 225 27" version="1.1" xmlns="http://www.w3.org/2000/svg" xmlns:xlink="http://www.w3.org/1999/xlink">
    <!-- Generator: Sketch 59.1 (86144) - https://sketch.com -->
    <title>Group 25</title>
    <desc>Created with Sketch.</desc>
    <g id="block-explorer" stroke="none" stroke-width="1" fill="none" fill-rule="evenodd">
        <g id="Explorer" transform="translate(-246.000000, -16.000000)">
            <g id="Group-25" transform="translate(247.000000, 17.000000)">
                <g id="Group-30">
                    <path d="M35,4.68869936 L43.4253898,4.68869936 L43.4253898,6.97228145 L40.4008909,6.97228145 L40.4008909,15.0916844 L43.4253898,15.0916844 L43.4253898,17.3752665 L35,17.3752665 L35,15.0916844 L38.0244989,15.0916844 L38.0244989,6.97228145 L35,6.97228145 L35,4.68869936 Z M48.3942094,17.3752665 L46.1258352,17.3752665 L46.1258352,8.38592751 L48.3942094,8.38592751 L48.3942094,9.72707889 L48.7182628,9.72707889 C48.9222975,9.21961367 49.2523486,8.82693813 49.7084261,8.54904051 C50.1645036,8.27114289 50.6985864,8.13219616 51.3106904,8.13219616 C51.7427639,8.13219616 52.1478266,8.20166953 52.5258909,8.34061834 C52.9039551,8.47956715 53.2370067,8.6940284 53.5250557,8.98400853 C53.8131046,9.27398866 54.0381395,9.64250178 54.200167,10.0895522 C54.3621946,10.5366049 54.4432071,11.0682272 54.4432071,11.684435 L54.4432071,17.3752665 L52.174833,17.3752665 L52.174833,12.2643923 C52.174833,11.6240195 52.0218093,11.1195825 51.7157572,10.7510661 C51.4097052,10.3825497 50.9686369,10.1982942 50.392539,10.1982942 C49.7204248,10.1982942 49.2193471,10.4248378 48.889291,10.8779318 C48.5592349,11.3310257 48.3942094,11.9381625 48.3942094,12.6993603 L48.3942094,17.3752665 Z M65.8570898,14.0767591 C65.6530552,15.1400195 65.1699803,15.9978645 64.4078508,16.6503198 C63.6457213,17.3027751 62.6285636,17.6289979 61.3563474,17.6289979 C60.6962353,17.6289979 60.0811399,17.5262981 59.5110431,17.3208955 C58.9409462,17.1154929 58.4458695,16.819476 58.0257981,16.4328358 C57.6057267,16.0461957 57.2756755,15.5689438 57.0356347,15.0010661 C56.7955939,14.4331883 56.6755754,13.786784 56.6755754,13.0618337 L56.6755754,12.8443497 C56.6755754,12.1193994 56.7955939,11.4669539 57.0356347,10.8869936 C57.2756755,10.3070333 57.6087271,9.81165806 58.0347996,9.40085288 C58.460872,8.9900477 58.9589491,8.67590727 59.529046,8.45842217 C60.0991429,8.24093708 60.7082373,8.13219616 61.3563474,8.13219616 C62.6045596,8.13219616 63.6157162,8.45841891 64.3898478,9.1108742 C65.1639794,9.76332949 65.6530552,10.6211745 65.8570898,11.684435 L63.6247216,12.2643923 C63.5527094,11.7327621 63.324674,11.2736338 62.9406088,10.8869936 C62.5565435,10.5003534 62.0164598,10.3070362 61.3203415,10.3070362 C60.9962864,10.3070362 60.690239,10.3674479 60.4021901,10.4882729 C60.1141411,10.609098 59.862102,10.7812711 59.6460653,11.0047974 C59.4300286,11.2283238 59.2590021,11.5001761 59.1329807,11.8203625 C59.0069593,12.1405489 58.9439495,12.499998 58.9439495,12.8987207 L58.9439495,13.0074627 C58.9439495,13.4061854 59.0069593,13.7595933 59.1329807,14.0676972 C59.2590021,14.3758011 59.4300286,14.6325505 59.6460653,14.8379531 C59.862102,15.0433557 60.1141411,15.1974053 60.4021901,15.3001066 C60.690239,15.4028079 60.9962864,15.4541578 61.3203415,15.4541578 C62.0164598,15.4541578 62.5475421,15.2789641 62.9136043,14.9285714 C63.2796665,14.5781788 63.5167032,14.1069681 63.6247216,13.5149254 L65.8570898,14.0767591 Z M76.9109131,12.989339 C76.9109131,13.7384543 76.7848936,14.3999616 76.5328508,14.9738806 C76.2808079,15.5477996 75.9387549,16.0310926 75.5066815,16.423774 C75.0746081,16.8164554 74.5795314,17.1154929 74.0214365,17.3208955 C73.4633417,17.5262981 72.878251,17.6289979 72.266147,17.6289979 C71.654043,17.6289979 71.0689523,17.5262981 70.5108575,17.3208955 C69.9527626,17.1154929 69.4576859,16.8164554 69.0256125,16.423774 C68.593539,16.0310926 68.251486,15.5477996 67.9994432,14.9738806 C67.7474004,14.3999616 67.6213808,13.7384543 67.6213808,12.989339 L67.6213808,12.771855 C67.6213808,12.0348222 67.7474004,11.3793561 67.9994432,10.8054371 C68.251486,10.2315181 68.593539,9.74520455 69.0256125,9.34648188 C69.4576859,8.9477592 69.9527626,8.6457011 70.5108575,8.44029851 C71.0689523,8.23489592 71.654043,8.13219616 72.266147,8.13219616 C72.878251,8.13219616 73.4633417,8.23489592 74.0214365,8.44029851 C74.5795314,8.6457011 75.0746081,8.9477592 75.5066815,9.34648188 C75.9387549,9.74520455 76.2808079,10.2315181 76.5328508,10.8054371 C76.7848936,11.3793561 76.9109131,12.0348222 76.9109131,12.771855 L76.9109131,12.989339 Z M72.266147,15.4541578 C72.5902021,15.4541578 72.8962495,15.3997873 73.1842984,15.2910448 C73.4723474,15.1823022 73.7243864,15.025232 73.9404232,14.8198294 C74.1564599,14.6144268 74.3274864,14.3637186 74.4535078,14.0676972 C74.5795292,13.7716758 74.642539,13.4363914 74.642539,13.0618337 L74.642539,12.6993603 C74.642539,12.3248027 74.5795292,11.9895182 74.4535078,11.6934968 C74.3274864,11.3974754 74.1564599,11.1467672 73.9404232,10.9413646 C73.7243864,10.735962 73.4723474,10.5788918 73.1842984,10.4701493 C72.8962495,10.3614067 72.5902021,10.3070362 72.266147,10.3070362 C71.9420919,10.3070362 71.6360445,10.3614067 71.3479955,10.4701493 C71.0599466,10.5788918 70.8079075,10.735962 70.5918708,10.9413646 C70.3758341,11.1467672 70.2048076,11.3974754 70.0787862,11.6934968 C69.9527648,11.9895182 69.889755,12.3248027 69.889755,12.6993603 L69.889755,13.0618337 C69.889755,13.4363914 69.9527648,13.7716758 70.0787862,14.0676972 C70.2048076,14.3637186 70.3758341,14.6144268 70.5918708,14.8198294 C70.8079075,15.025232 71.0599466,15.1823022 71.3479955,15.2910448 C71.6360445,15.3997873 71.9420919,15.4541578 72.266147,15.4541578 Z M85.5523385,16.0703625 L85.2282851,16.0703625 C85.1322688,16.2757651 85.0152506,16.4721028 84.8772272,16.6593817 C84.7392037,16.8466605 84.5591758,17.0127925 84.3371381,17.1577825 C84.1151003,17.3027726 83.8510594,17.4175547 83.5450074,17.5021322 C83.2389554,17.5867097 82.8698982,17.6289979 82.4378248,17.6289979 C81.885731,17.6289979 81.3726515,17.5293187 80.8985709,17.3299574 C80.4244903,17.130596 80.0104262,16.8345791 79.656366,16.4418977 C79.3023058,16.0492162 79.0262631,15.5689438 78.8282294,15.0010661 C78.6301957,14.4331883 78.5311804,13.7807428 78.5311804,13.04371 L78.5311804,12.717484 C78.5311804,11.9925337 78.6361967,11.3461293 78.8462324,10.7782516 C79.0562681,10.2103738 79.3443127,9.73010147 79.7103749,9.33742004 C80.0764371,8.94473862 80.5025031,8.6457011 80.9885857,8.44029851 C81.4746684,8.23489592 81.9877479,8.13219616 82.5278396,8.13219616 C83.247962,8.13219616 83.8180504,8.26812231 84.2381218,8.53997868 C84.6581931,8.81183505 84.9882443,9.19544884 85.2282851,9.69083156 L85.5523385,9.69083156 L85.5523385,8.38592751 L87.8207127,8.38592751 L87.8207127,19.5863539 C87.8207127,19.9971591 87.6916927,20.3354642 87.4336488,20.6012793 C87.175605,20.8670944 86.8425534,21 86.434484,21 L80.4214922,21 L80.4214922,18.8251599 L85.0662584,18.8251599 C85.3903134,18.8251599 85.5523385,18.6439251 85.5523385,18.2814499 L85.5523385,16.0703625 Z M83.1759465,15.4541578 C83.8840669,15.4541578 84.4571557,15.2276142 84.8952301,14.7745203 C85.3333046,14.3214263 85.5523385,13.7263718 85.5523385,12.989339 L85.5523385,12.771855 C85.5523385,12.0348222 85.3333046,11.4397677 84.8952301,10.9866738 C84.4571557,10.5335798 83.8840669,10.3070362 83.1759465,10.3070362 C82.4678262,10.3070362 81.8947374,10.5275387 81.456663,10.9685501 C81.0185885,11.4095616 80.7995546,12.0106572 80.7995546,12.771855 L80.7995546,12.989339 C80.7995546,13.7505369 81.0185885,14.3516325 81.456663,14.7926439 C81.8947374,15.2336554 82.4678262,15.4541578 83.1759465,15.4541578 Z M92.4654788,17.3752665 L90.1971047,17.3752665 L90.1971047,8.38592751 L92.4654788,8.38592751 L92.4654788,9.72707889 L92.7895323,9.72707889 C92.993567,9.21961367 93.3236181,8.82693813 93.7796956,8.54904051 C94.2357731,8.27114289 94.7698559,8.13219616 95.3819599,8.13219616 C95.8140333,8.13219616 96.2190961,8.20166953 96.5971604,8.34061834 C96.9752246,8.47956715 97.3082762,8.6940284 97.5963252,8.98400853 C97.8843741,9.27398866 98.109409,9.64250178 98.2714365,10.0895522 C98.4334641,10.5366049 98.5144766,11.0682272 98.5144766,11.684435 L98.5144766,17.3752665 L96.2461024,17.3752665 L96.2461024,12.2643923 C96.2461024,11.6240195 96.0930787,11.1195825 95.7870267,10.7510661 C95.4809747,10.3825497 95.0399064,10.1982942 94.4638085,10.1982942 C93.7916942,10.1982942 93.2906166,10.4248378 92.9605605,10.8779318 C92.6305044,11.3310257 92.4654788,11.9381625 92.4654788,12.6993603 L92.4654788,17.3752665 Z M101.376949,15.2004264 L104.401448,15.2004264 L104.401448,10.5607676 L101.592984,10.5607676 L101.592984,8.38592751 L106.669822,8.38592751 L106.669822,15.2004264 L109.262249,15.2004264 L109.262249,17.3752665 L101.376949,17.3752665 L101.376949,15.2004264 Z M107.227914,5.7217484 C107.227914,5.96339851 107.182907,6.18994208 107.092892,6.40138593 C107.002876,6.61282977 106.879857,6.79406463 106.723831,6.94509595 C106.567804,7.09612727 106.384776,7.21695051 106.17474,7.3075693 C105.964704,7.39818809 105.745671,7.4434968 105.517632,7.4434968 C105.277591,7.4434968 105.055557,7.39818809 104.851522,7.3075693 C104.647487,7.21695051 104.467459,7.09612727 104.311433,6.94509595 C104.155406,6.79406463 104.032387,6.61282977 103.942372,6.40138593 C103.852357,6.18994208 103.80735,5.96339851 103.80735,5.7217484 C103.80735,5.48009829 103.852357,5.25355472 103.942372,5.04211087 C104.032387,4.83066703 104.155406,4.64943217 104.311433,4.49840085 C104.467459,4.34736954 104.647487,4.2265463 104.851522,4.13592751 C105.055557,4.04530872 105.277591,4 105.517632,4 C105.745671,4 105.964704,4.04530872 106.17474,4.13592751 C106.384776,4.2265463 106.567804,4.34736954 106.723831,4.49840085 C106.879857,4.64943217 107.002876,4.83066703 107.092892,5.04211087 C107.182907,5.25355472 107.227914,5.48009829 107.227914,5.7217484 Z M111.980698,8.38592751 L114.627134,8.38592751 L114.627134,4.68869936 L116.895509,4.68869936 L116.895509,8.38592751 L120.11804,8.38592751 L120.11804,10.5607676 L116.895509,10.5607676 L116.895509,14.6567164 C116.895509,15.0191916 117.057534,15.2004264 117.381589,15.2004264 L119.793987,15.2004264 L119.793987,17.3752665 L116.013363,17.3752665 C115.605294,17.3752665 115.272242,17.242361 115.014198,16.9765458 C114.756154,16.7107307 114.627134,16.3724257 114.627134,15.9616205 L114.627134,10.5607676 L111.980698,10.5607676 L111.980698,8.38592751 Z M132,12.989339 C132,13.7384543 131.87398,14.3999616 131.621938,14.9738806 C131.369895,15.5477996 131.027842,16.0310926 130.595768,16.423774 C130.163695,16.8164554 129.668618,17.1154929 129.110523,17.3208955 C128.552429,17.5262981 127.967338,17.6289979 127.355234,17.6289979 C126.74313,17.6289979 126.158039,17.5262981 125.599944,17.3208955 C125.041849,17.1154929 124.546773,16.8164554 124.114699,16.423774 C123.682626,16.0310926 123.340573,15.5477996 123.08853,14.9738806 C122.836487,14.3999616 122.710468,13.7384543 122.710468,12.989339 L122.710468,12.771855 C122.710468,12.0348222 122.836487,11.3793561 123.08853,10.8054371 C123.340573,10.2315181 123.682626,9.74520455 124.114699,9.34648188 C124.546773,8.9477592 125.041849,8.6457011 125.599944,8.44029851 C126.158039,8.23489592 126.74313,8.13219616 127.355234,8.13219616 C127.967338,8.13219616 128.552429,8.23489592 129.110523,8.44029851 C129.668618,8.6457011 130.163695,8.9477592 130.595768,9.34648188 C131.027842,9.74520455 131.369895,10.2315181 131.621938,10.8054371 C131.87398,11.3793561 132,12.0348222 132,12.771855 L132,12.989339 Z M127.355234,15.4541578 C127.679289,15.4541578 127.985336,15.3997873 128.273385,15.2910448 C128.561434,15.1823022 128.813473,15.025232 129.02951,14.8198294 C129.245547,14.6144268 129.416573,14.3637186 129.542595,14.0676972 C129.668616,13.7716758 129.731626,13.4363914 129.731626,13.0618337 L129.731626,12.6993603 C129.731626,12.3248027 129.668616,11.9895182 129.542595,11.6934968 C129.416573,11.3974754 129.245547,11.1467672 129.02951,10.9413646 C128.813473,10.735962 128.561434,10.5788918 128.273385,10.4701493 C127.985336,10.3614067 127.679289,10.3070362 127.355234,10.3070362 C127.031179,10.3070362 126.725131,10.3614067 126.437082,10.4701493 C126.149033,10.5788918 125.896994,10.735962 125.680958,10.9413646 C125.464921,11.1467672 125.293894,11.3974754 125.167873,11.6934968 C125.041852,11.9895182 124.978842,12.3248027 124.978842,12.6993603 L124.978842,13.0618337 C124.978842,13.4363914 125.041852,13.7716758 125.167873,14.0676972 C125.293894,14.3637186 125.464921,14.6144268 125.680958,14.8198294 C125.896994,15.025232 126.149033,15.1823022 126.437082,15.2910448 C126.725131,15.3997873 127.031179,15.4541578 127.355234,15.4541578 Z" id="Incognito" fill="#FFFFFF" fill-rule="nonzero"></path>
                    <g id="Privacy">
                        <g id="Group-7">
                            <path d="M12.4365571,24.8731141 C5.56806987,24.8731141 -1.11910481e-13,19.305112 -1.11910481e-13,12.4365571 C-1.11910481e-13,5.56800215 5.56806987,-8.8817842e-15 12.4365571,-8.8817842e-15 C15.0442564,-8.8817842e-15 17.46451,0.802587227 19.4637687,2.17422363 C22.7304095,4.41537606 24.8731141,8.1757272 24.8731141,12.4365571 C24.8731141,19.305112 19.3050443,24.8731141 12.4365571,24.8731141 Z" id="Fill-725" stroke="#25CDD6" stroke-width="2" fill="#101111"></path>
                            <g id="Group-10" transform="translate(5.915832, 6.484737)" stroke="#00E9FF">
                                <path d="M12.9721389,5.72333279 C11.5655416,6.30520903 9.15677794,6.65259174 6.52866679,6.65259174 C3.90425119,6.65259174 1.49551667,6.30522358 0.085281936,5.72337644 C0.0295720845,5.70038831 0.00304843351,5.63658896 0.0260365676,5.58087911 C0.0490247017,5.52516926 0.112853148,5.49866016 0.168519351,5.52163374 C1.55371448,6.09315076 3.93134227,6.43434996 6.52866679,6.43434996 C9.12961412,6.43434996 11.5071983,6.09316531 12.8887124,5.52166284 C12.9443931,5.49861651 13.008207,5.52509651 13.0312534,5.58077726 C13.0542851,5.63647257 13.0278197,5.70030101 12.9721389,5.72333279 M2.33769715,5.93974134 L3.52202254,0.119960555 C3.53561172,0.0532222186 3.60638026,0.0151463028 3.66949578,0.0404041514 L6.5388514,1.18815222 L9.40822157,0.0404041514 C9.47148259,0.0151026545 9.54235297,0.0534113615 9.55575301,0.120309742 L10.7197092,5.94009053 C10.7315233,5.9991904 10.6931855,6.05667529 10.6341002,6.06850399 C10.5750003,6.08037635 10.5175154,6.04198034 10.5057013,5.98289502 L9.36746856,0.291745934 L6.57937163,1.40699053 C6.55335721,1.41740793 6.52433105,1.41739338 6.49831663,1.40699053 L3.70982686,0.29158589 L2.55155954,5.98325875 C2.53957079,6.04215494 2.48210046,6.08047819 2.42286964,6.06843125 C2.36381341,6.0564134 2.3256793,5.99879757 2.33769715,5.93974134 M9.43855718,11.6721527 C8.53602557,11.6721527 7.80174383,10.9378709 7.80174383,10.0353393 C7.80174383,9.13280772 8.53602557,8.39852598 9.43855718,8.39852598 C10.3410888,8.39852598 11.0753705,9.13280772 11.0753705,10.0353393 C11.0753705,10.9378709 10.3410888,11.6721527 9.43855718,11.6721527 M3.61877639,11.6721527 C2.71623024,11.6721527 1.98196304,10.9378709 1.98196304,10.0353393 C1.98196304,9.13280772 2.71623024,8.39852598 3.61877639,8.39852598 C4.52132255,8.39852598 5.25558974,9.13280772 5.25558974,10.0353393 C5.25558974,10.9378709 4.52132255,11.6721527 3.61877639,11.6721527 M9.43855718,8.1802842 C8.50641744,8.1802842 7.73277943,8.87139772 7.60282373,9.76810954 C6.98595606,9.24192861 6.07110107,9.24226325 5.45465534,9.76920075 C5.32517977,8.87196515 4.55129442,8.1802842 3.61877639,8.1802842 C2.59589172,8.1802842 1.76372126,9.01245465 1.76372126,10.0353393 C1.76372126,11.058224 2.59589172,11.8903945 3.61877639,11.8903945 C4.64103544,11.8903945 5.47279851,11.0592279 5.47380242,10.0372162 C5.48814818,10.0319202 5.50163552,10.023627 5.51315869,10.0121039 C5.78457871,9.74068382 6.14547787,9.5912173 6.52939426,9.5912173 C6.9132961,9.5912173 7.2742098,9.74068382 7.54561528,10.0121039 C7.55674561,10.0232342 7.56972372,10.0313964 7.5835166,10.036707 C7.58425862,11.058966 8.41612354,11.8903945 9.43855718,11.8903945 C10.4614419,11.8903945 11.2936123,11.058224 11.2936123,10.0353393 C11.2936123,9.01245465 10.4614419,8.1802842 9.43855718,8.1802842" id="Fill-8"></path>
                            </g>
                        </g>
                    </g>
                </g>
                <path d="M137.912,4.4 L145.868,4.4 L145.868,6.668 L140.288,6.668 L140.288,9.548 L145.652,9.548 L145.652,11.816 L140.288,11.816 L140.288,14.732 L146.084,14.732 L146.084,17 L137.912,17 L137.912,4.4 Z M154.778,8.072 L157.28,8.072 L155.12,12.266 L155.12,12.59 L157.406,17 L154.796,17 L153.122,13.508 L152.798,13.508 L151.124,17 L148.514,17 L150.8,12.59 L150.8,12.266 L148.622,8.072 L151.142,8.072 L152.798,11.348 L153.122,11.348 L154.778,8.072 Z M161.672,20.6 L159.404,20.6 L159.404,8.072 L161.672,8.072 L161.672,9.368 L161.996,9.368 C162.236001,8.87599754 162.583998,8.49500135 163.04,8.225 C163.496002,7.95499865 164.077996,7.82 164.786,7.82 C165.314003,7.82 165.814998,7.92199898 166.289,8.126 C166.763002,8.33000102 167.176998,8.62699805 167.531,9.017 C167.885002,9.40700195 168.166999,9.88399718 168.377,10.448 C168.587001,11.0120028 168.692,11.6539964 168.692,12.374 L168.692,12.698 C168.692,13.4300037 168.590001,14.0779972 168.386,14.642 C168.181999,15.2060028 167.906002,15.682998 167.558,16.073 C167.209998,16.4630019 166.799002,16.756999 166.325,16.955 C165.850998,17.153001 165.338003,17.252 164.786,17.252 C164.377998,17.252 164.024002,17.2100004 163.724,17.126 C163.423999,17.0419996 163.163001,16.9280007 162.941,16.784 C162.718999,16.6399993 162.533001,16.4750009 162.383,16.289 C162.232999,16.1029991 162.104001,15.908001 161.996,15.704 L161.672,15.704 L161.672,20.6 Z M164.048,15.092 C164.756004,15.092 165.328998,14.8730022 165.767,14.435 C166.205002,13.9969978 166.424,13.4000038 166.424,12.644 L166.424,12.428 C166.424,11.6719962 166.205002,11.0750022 165.767,10.637 C165.328998,10.1989978 164.756004,9.98 164.048,9.98 C163.339996,9.98 162.767002,10.2049978 162.329,10.655 C161.890998,11.1050022 161.672,11.6959963 161.672,12.428 L161.672,12.644 C161.672,13.3760037 161.890998,13.9669977 162.329,14.417 C162.767002,14.8670022 163.339996,15.092 164.048,15.092 Z M170.834,14.84 L173.966,14.84 L173.966,6.56 L170.942,6.56 L170.942,4.4 L176.234,4.4 L176.234,14.84 L179.15,14.84 L179.15,17 L170.834,17 L170.834,14.84 Z M190.652,12.644 C190.652,13.3880037 190.526001,14.0449972 190.274,14.615 C190.021999,15.1850029 189.680002,15.6649981 189.248,16.055 C188.815998,16.4450019 188.321003,16.741999 187.763,16.946 C187.204997,17.150001 186.620003,17.252 186.008,17.252 C185.395997,17.252 184.811003,17.150001 184.253,16.946 C183.694997,16.741999 183.200002,16.4450019 182.768,16.055 C182.335998,15.6649981 181.994001,15.1850029 181.742,14.615 C181.489999,14.0449972 181.364,13.3880037 181.364,12.644 L181.364,12.428 C181.364,11.6959963 181.489999,11.0450028 181.742,10.475 C181.994001,9.90499715 182.335998,9.42200198 182.768,9.026 C183.200002,8.62999802 183.694997,8.33000102 184.253,8.126 C184.811003,7.92199898 185.395997,7.82 186.008,7.82 C186.620003,7.82 187.204997,7.92199898 187.763,8.126 C188.321003,8.33000102 188.815998,8.62999802 189.248,9.026 C189.680002,9.42200198 190.021999,9.90499715 190.274,10.475 C190.526001,11.0450028 190.652,11.6959963 190.652,12.428 L190.652,12.644 Z M186.008,15.092 C186.332002,15.092 186.637999,15.0380005 186.926,14.93 C187.214001,14.8219995 187.465999,14.666001 187.682,14.462 C187.898001,14.257999 188.068999,14.0090015 188.195,13.715 C188.321001,13.4209985 188.384,13.0880019 188.384,12.716 L188.384,12.356 C188.384,11.9839981 188.321001,11.6510015 188.195,11.357 C188.068999,11.0629985 187.898001,10.814001 187.682,10.61 C187.465999,10.405999 187.214001,10.2500005 186.926,10.142 C186.637999,10.0339995 186.332002,9.98 186.008,9.98 C185.683998,9.98 185.378001,10.0339995 185.09,10.142 C184.801999,10.2500005 184.550001,10.405999 184.334,10.61 C184.117999,10.814001 183.947001,11.0629985 183.821,11.357 C183.694999,11.6510015 183.632,11.9839981 183.632,12.356 L183.632,12.716 C183.632,13.0880019 183.694999,13.4209985 183.821,13.715 C183.947001,14.0090015 184.117999,14.257999 184.334,14.462 C184.550001,14.666001 184.801999,14.8219995 185.09,14.93 C185.378001,15.0380005 185.683998,15.092 186.008,15.092 Z M192.488,8.072 L196.268,8.072 L196.268,9.368 L196.592,9.368 C196.760001,8.87599754 197.044998,8.49500135 197.447,8.225 C197.849002,7.95499865 198.331997,7.82 198.896,7.82 C199.784004,7.82 200.497997,8.09899721 201.038,8.657 C201.578003,9.21500279 201.848,10.0639943 201.848,11.204 L201.848,11.6 L199.508,11.816 L199.508,11.564 C199.508,11.0719975 199.382001,10.6790015 199.13,10.385 C198.877999,10.0909985 198.500003,9.944 197.996,9.944 C197.491997,9.944 197.096001,10.1179983 196.808,10.466 C196.519999,10.8140017 196.376,11.3119968 196.376,11.96 L196.376,14.84 L198.428,14.84 L198.428,17 L192.272,17 L192.272,14.84 L194.108,14.84 L194.108,10.232 L192.488,10.232 L192.488,8.072 Z M205.934,13.274 C205.946,13.5380013 206.008999,13.7809989 206.123,14.003 C206.237001,14.2250011 206.392999,14.4169992 206.591,14.579 C206.789001,14.7410008 207.016999,14.8669996 207.275,14.957 C207.533001,15.0470004 207.805999,15.092 208.094,15.092 C208.658003,15.092 209.089999,14.993001 209.39,14.795 C209.690002,14.596999 209.905999,14.3600014 210.038,14.084 L211.982,15.164 C211.873999,15.3920011 211.724001,15.6289988 211.532,15.875 C211.339999,16.1210012 211.091002,16.345999 210.785,16.55 C210.478998,16.754001 210.107002,16.9219993 209.669,17.054 C209.230998,17.1860007 208.718003,17.252 208.13,17.252 C207.457997,17.252 206.846003,17.1440011 206.294,16.928 C205.741997,16.7119989 205.265002,16.400002 204.863,15.992 C204.460998,15.583998 204.149001,15.0860029 203.927,14.498 C203.704999,13.9099971 203.594,13.2440037 203.594,12.5 L203.594,12.392 C203.594,11.7079966 203.710999,11.0840028 203.945,10.52 C204.179001,9.95599718 204.499998,9.47600198 204.908,9.08 C205.316002,8.68399802 205.792997,8.37500111 206.339,8.153 C206.885003,7.93099889 207.469997,7.82 208.094,7.82 C208.862004,7.82 209.521997,7.95499865 210.074,8.225 C210.626003,8.49500135 211.081998,8.83699793 211.442,9.251 C211.802002,9.66500207 212.065999,10.1209975 212.234,10.619 C212.402001,11.1170025 212.486,11.5999977 212.486,12.068 L212.486,13.274 L205.934,13.274 Z M208.076,9.872 C207.499997,9.872 207.032002,10.0189985 206.672,10.313 C206.311998,10.6070015 206.078001,10.9459981 205.97,11.33 L210.182,11.33 C210.11,10.9099979 209.885002,10.5620014 209.507,10.286 C209.128998,10.0099986 208.652003,9.872 208.076,9.872 Z M214.52,8.072 L218.3,8.072 L218.3,9.368 L218.624,9.368 C218.792001,8.87599754 219.076998,8.49500135 219.479,8.225 C219.881002,7.95499865 220.363997,7.82 220.928,7.82 C221.816004,7.82 222.529997,8.09899721 223.07,8.657 C223.610003,9.21500279 223.88,10.0639943 223.88,11.204 L223.88,11.6 L221.54,11.816 L221.54,11.564 C221.54,11.0719975 221.414001,10.6790015 221.162,10.385 C220.909999,10.0909985 220.532003,9.944 220.028,9.944 C219.523997,9.944 219.128001,10.1179983 218.84,10.466 C218.551999,10.8140017 218.408,11.3119968 218.408,11.96 L218.408,14.84 L220.46,14.84 L220.46,17 L214.304,17 L214.304,14.84 L216.14,14.84 L216.14,10.232 L214.52,10.232 L214.52,8.072 Z" id="Explorer" fill="#25CDD6" fill-rule="nonzero"></path>
            </g>
        </g>
    </g>
</svg>