<?xml version="1.0" encoding="UTF-8"?>
<svg width="98px" height="144px" viewBox="0 0 98 144" version="1.1" xmlns="http://www.w3.org/2000/svg" xmlns:xlink="http://www.w3.org/1999/xlink">
    <!-- Generator: Sketch 52.5 (67469) - http://www.bohemiancoding.com/sketch -->
    <title>Group 6</title>
    <desc>Created with Sketch.</desc>
    <g id="EXCHANGE" stroke="none" stroke-width="1" fill="none" fill-rule="evenodd" opacity="0.495651972">
        <g id="Dashboard" transform="translate(-397.000000, -497.000000)">
            <g id="Group-19" transform="translate(92.000000, 467.000000)">
                <g id="Group-18">
                    <g id="Group-6">
                        <g transform="translate(305.000000, 30.000000)">
                            <rect id="Rectangle" fill="#E6E9FF" x="3.5" y="108.5" width="91" height="31.5"></rect>
                            <rect id="Rectangle" fill="#E6E9FF" x="17.5" y="73.5" width="63" height="31.5"></rect>
                            <path d="M80.5,66.5 L17.5,66.5 C17.5,52.5 31.605,38.5 49,38.5 C66.395,38.5 80.5,52.5 80.5,66.5 Z" id="Path" fill="#E6E9FF"></path>
                            <rect id="Rectangle" fill="#E6E9FF" x="42" y="21" width="14" height="17.5"></rect>
                            <rect id="Rectangle" fill="#566EF5" x="10.5" y="112" width="7" height="24.5"></rect>
                            <rect id="Rectangle" fill="#566EF5" x="24.5" y="112" width="7" height="24.5"></rect>
                            <rect id="Rectangle" fill="#566EF5" x="38.5" y="112" width="7" height="24.5"></rect>
                            <rect id="Rectangle" fill="#566EF5" x="52.5" y="112" width="7" height="24.5"></rect>
                            <rect id="Rectangle" fill="#566EF5" x="66.5" y="112" width="7" height="24.5"></rect>
                            <rect id="Rectangle" fill="#566EF5" x="24.5" y="77" width="7" height="24.5"></rect>
                            <rect id="Rectangle" fill="#566EF5" x="38.5" y="77" width="7" height="24.5"></rect>
                            <rect id="Rectangle" fill="#566EF5" x="52.5" y="77" width="7" height="24.5"></rect>
                            <rect id="Rectangle" fill="#566EF5" x="66.5" y="77" width="7" height="24.5"></rect>
                            <rect id="Rectangle" fill="#566EF5" x="80.5" y="112" width="7" height="24.5"></rect>
                            <path d="M98,106.75 C98,109.648 95.648,112 92.75,112 L5.25,112 C2.352,112 0,109.648 0,106.75 C0,103.852 2.352,101.5 5.25,101.5 L92.75,101.5 C95.648,101.5 98,103.852 98,106.75 Z" id="Path" fill="#DADDF3"></path>
                            <path d="M98,141.75 C98,144.648 95.648,147 92.75,147 L5.25,147 C2.352,147 0,144.648 0,141.75 C0,138.852 2.352,136.5 5.25,136.5 L92.75,136.5 C95.648,136.5 98,138.852 98,141.75 Z" id="Path" fill="#DADDF3"></path>
                            <path d="M87.5,71.75 C87.5,74.648 85.148,77 82.25,77 L15.75,77 C12.852,77 10.5,74.648 10.5,71.75 C10.5,68.852 12.852,66.5 15.75,66.5 L82.25,66.5 C85.148,66.5 87.5,68.852 87.5,71.75 Z" id="Path" fill="#DADDF3"></path>
                            <path d="M59.5,38.5 C59.5,40.432 57.9355,42 56,42 L42,42 C40.0645,42 38.5,40.432 38.5,38.5 C38.5,36.568 40.0645,35 42,35 L56,35 C57.9355,35 59.5,36.568 59.5,38.5 Z" id="Path" fill="#DADDF3"></path>
                            <path d="M56,21.0035 L42,21.0035 C42,17.1395 45.136,14.0035 49,14.0035 C52.864,14.0035 56,17.136 56,21.0035 Z" id="Path" fill="#212B63"></path>
                            <path d="M52.5,17.5 C52.5,19.432 50.9355,21 49,21 C47.0645,21 45.5,19.432 45.5,17.5 L45.5,3.5 C45.5,1.568 47.0645,-5.1691984e-13 49,-5.1691984e-13 C50.9355,-5.1691984e-13 52.5,1.568 52.5,3.5 L52.5,17.5 Z" id="Path" fill="#212B63"></path>
                        </g>
                    </g>
                </g>
            </g>
        </g>
    </g>
</svg>