<?xml version="1.0" encoding="UTF-8"?>
<svg width="132px" height="139px" viewBox="0 0 132 139" version="1.1" xmlns="http://www.w3.org/2000/svg" xmlns:xlink="http://www.w3.org/1999/xlink">
    <!-- Generator: Sketch 52.5 (67469) - http://www.bohemiancoding.com/sketch -->
    <title>Group 14</title>
    <desc>Created with Sketch.</desc>
    <g id="EXCHANGE" stroke="none" stroke-width="1" fill="none" fill-rule="evenodd" opacity="0.5">
        <g id="Dashboard" transform="translate(-1215.000000, -502.000000)">
            <g id="Group-19" transform="translate(92.000000, 467.000000)">
                <g id="Group-18">
                    <g id="Group-14" transform="translate(852.000000, 0.000000)">
                        <g transform="translate(269.000000, 35.000000)">
                            <rect id="Rectangle" fill="#E6E9FF" x="35" y="39" width="83.4744745" height="109.834835"></rect>
                            <polygon id="Path" fill="#566EF5" fill-rule="nonzero" points="2.31231231 39.0780781 151.687688 39.0780781 151.687688 29.6893964 77 0.253660661 2.31231231 29.6893964"></polygon>
                            <rect id="Rectangle" fill="#98CCFD" x="13.2957958" y="54.454955" width="21.966967" height="96.6546547"></rect>
                            <polygon id="Path" fill="#DADDF3" fill-rule="nonzero" points="37.4594595 153.306306 11.0990991 153.306306 11.0990991 52.2582583 37.4594595 52.2582583"></polygon>
                            <polygon id="Path" fill="#DADDF3" fill-rule="nonzero" points="15.4924925 148.912913 33.0660661 148.912913 33.0660661 56.6516517 15.4924925 56.6516517"></polygon>
                            <rect id="Rectangle" fill="#98CCFD" x="118.737237" y="54.454955" width="21.966967" height="96.6546547"></rect>
                            <polygon id="Path" fill="#DADDF3" fill-rule="nonzero" points="142.900901 153.306306 116.540541 153.306306 116.540541 52.2582583 142.900901 52.2582583"></polygon>
                            <polygon id="Path" fill="#DADDF3" fill-rule="nonzero" points="120.933934 148.912913 138.507508 148.912913 138.507508 56.6516517 120.933934 56.6516517"></polygon>
                            <rect id="Rectangle" fill="#98CCFD" x="4.50900901" y="41.2747748" width="39.5405405" height="13.1801802"></rect>
                            <polygon id="Path" fill="#4788C7" fill-rule="nonzero" points="41.8528529 43.4714715 41.8528529 52.2582583 6.70570571 52.2582583 6.70570571 43.4714715"></polygon>
                            <polygon id="Path" fill="#E6E9FF" fill-rule="nonzero" points="46.2462462 39.0780781 2.31231231 39.0780781 2.31231231 56.6516517 46.2462462 56.6516517"></polygon>
                            <rect id="Rectangle" fill="#98CCFD" x="109.95045" y="41.2747748" width="39.5405405" height="13.1801802"></rect>
                            <polygon id="Path" fill="#4788C7" fill-rule="nonzero" points="147.294294 43.4714715 147.294294 52.2582583 112.147147 52.2582583 112.147147 43.4714715"></polygon>
                            <polygon id="Path" fill="#E6E9FF" fill-rule="nonzero" points="151.687688 39.0780781 107.753754 39.0780781 107.753754 56.6516517 151.687688 56.6516517"></polygon>
                            <path d="M98.9362132,109.96548 C98.9406066,91.0255616 67.9979369,92.4753814 67.9979369,81.8257958 C67.9979369,78.3945556 71.1963273,75.4334084 77.7732372,75.4334084 C85.220039,75.4334084 90.3866697,77.4631562 94.556,79.8927027 L94.556,68.3117177 C91.8277027,67.085961 87.2981141,65.7635495 81.3933934,65.4384384 L81.3933934,56.6516517 L72.6066066,56.6516517 L72.6066066,65.7723363 L72.5978198,65.7723363 C67.7035796,66.4928529 62.9587147,68.3864054 59.9843874,71.2377177 C56.6849489,74.400961 55.033033,78.2232132 55.033033,82.7132613 C55.033033,100.453784 85.778,100.87555 85.778,110.598129 C85.778,114.05573 81.2703784,116.731306 76.2443363,116.731306 C65.955009,116.731306 56.8694715,112.513649 55.1428679,111.16927 L55.1428679,123.053399 C59.8833393,125.425832 67.171979,126.713096 72.6022132,126.950339 L72.6066066,126.945946 L72.6066066,135.732733 L81.3933934,135.732733 L81.3933934,126.642802 C86.9071021,125.953039 91.1906607,124.226435 94.2177087,121.441024 C97.3633784,118.536991 98.9362132,114.710345 98.9362132,109.96548 Z" id="Path" fill="#182D9E"></path>
                        </g>
                    </g>
                </g>
            </g>
        </g>
    </g>
</svg>