<?xml version="1.0" encoding="UTF-8"?>
<svg width="29px" height="29px" viewBox="0 0 29 29" version="1.1" xmlns="http://www.w3.org/2000/svg" xmlns:xlink="http://www.w3.org/1999/xlink">
    <!-- Generator: Sketch 52.5 (67469) - http://www.bohemiancoding.com/sketch -->
    <title> copy</title>
    <desc>Created with Sketch.</desc>
    <g id="EXCHANGE" stroke="none" stroke-width="1" fill="none" fill-rule="evenodd">
        <g id="Loan-home" transform="translate(-285.000000, -487.000000)" fill="#050C33">
            <g id="Group-7" transform="translate(255.000000, 358.000000)">
                <g id="Group-6" transform="translate(7.000000, 0.000000)">
                    <path d="M52,143.5 C52,146.111559 51.3471099,148.528226 50.0413306,150.75 C48.7355514,152.971774 46.9717742,154.735551 44.75,156.041331 C42.5282258,157.34711 40.1115594,158 37.5,158 C34.8884406,158 32.4717742,157.34711 30.25,156.041331 C28.0282258,154.735551 26.2644486,152.971774 24.9586694,150.75 C23.6528901,148.528226 23,146.111559 23,143.5 C23,140.888441 23.6528901,138.471774 24.9586694,136.25 C26.2644486,134.028226 28.0282258,132.264449 30.25,130.958669 C32.4717742,129.65289 34.8884406,129 37.5,129 C40.1115594,129 42.5282258,129.65289 44.75,130.958669 C46.9717742,132.264449 48.7355514,134.028226 50.0413306,136.25 C51.3471099,138.471774 52,140.888441 52,143.5 Z M43.6975806,141.453629 C43.8534949,140.557124 43.619624,139.777553 42.9959677,139.114919 C42.4502691,138.608199 41.6317207,138.159947 40.5403226,137.770161 L41.1834677,135.139113 L39.6048387,134.788306 L38.9616935,137.302419 L37.6754032,137.010081 L38.3185484,134.4375 L36.7399194,134.028226 L36.0967742,136.659274 L32.8810484,135.899194 L32.4717742,137.594758 L33.0564516,137.711694 C33.4462369,137.78965 33.6216401,137.828629 33.5826613,137.828629 C34.1283599,137.984543 34.3817207,138.296371 34.3427419,138.764113 L33.5826613,141.745968 L33.7580645,141.804435 L33.5826613,141.745968 L32.5302419,145.955645 C32.4133065,146.267473 32.1794355,146.384408 31.828629,146.306452 C31.828629,146.34543 31.4388438,146.247984 30.6592742,146.014113 L29.8991935,147.826613 L33.0564516,148.645161 L32.4133065,151.27621 L33.9919355,151.685484 L34.6935484,149.112903 L35.921371,149.405242 L35.2782258,152.03629 L36.8568548,152.387097 L37.5584677,149.756048 C39.0396502,150.067876 40.2090051,150.087366 41.0665323,149.814516 C42.0409949,149.502688 42.7426078,148.781586 43.171371,147.65121 C43.7560484,145.897177 43.2688175,144.610887 41.7096774,143.792339 C42.8400535,143.519489 43.5026885,142.739919 43.6975806,141.453629 Z M40.0725806,146.540323 C39.8776885,147.319892 39.2150535,147.709677 38.0846774,147.709677 C37.5,147.709677 36.6424728,147.553763 35.5120968,147.241935 L35.1612903,147.183468 L36.0383065,143.675403 L36.4475806,143.733871 C37.5779567,144.006721 38.4159949,144.27957 38.9616935,144.552419 C39.8971774,145.05914 40.2674728,145.721774 40.0725806,146.540323 Z M40.5987903,141.395161 C40.4038981,142.096774 39.8387097,142.46707 38.9032258,142.506048 C38.3965051,142.506048 37.6754032,142.389113 36.7399194,142.155242 L36.4475806,142.038306 L37.266129,138.881048 L37.5584677,138.939516 C38.5329304,139.173387 39.2345433,139.407258 39.6633065,139.641129 C40.442876,140.069892 40.7547046,140.65457 40.5987903,141.395161 Z" id="-copy"></path>
                </g>
            </g>
        </g>
    </g>
</svg>