<?xml version="1.0" standalone="no"?>
<!DOCTYPE svg PUBLIC "-//W3C//DTD SVG 20010904//EN"
 "http://www.w3.org/TR/2001/REC-SVG-20010904/DTD/svg10.dtd">
<svg version="1.0" xmlns="http://www.w3.org/2000/svg"
 width="493.000000pt" height="493.000000pt" viewBox="0 0 493.000000 493.000000"
 preserveAspectRatio="xMidYMid meet">
<metadata>
Created by potrace 1.11, written by Peter Selinger 2001-2013
</metadata>
<g transform="translate(0.000000,493.000000) scale(0.100000,-0.100000)"
fill="#000000" stroke="none">
<path d="M2279 4916 c-2 -2 -39 -7 -82 -11 -83 -7 -92 -8 -202 -30 -108 -22
-112 -23 -209 -51 -275 -80 -562 -227 -791 -407 -231 -181 -470 -455 -597
-686 -11 -20 -31 -56 -45 -81 -117 -211 -214 -516 -258 -815 -11 -70 -14 -457
-4 -530 4 -38 11 -90 14 -115 7 -58 15 -98 39 -200 105 -442 237 -745 451
-1029 103 -136 112 -147 225 -261 307 -308 705 -532 1125 -630 113 -27 146
-32 330 -55 52 -7 378 -7 430 -1 17 2 59 7 95 10 36 4 83 11 105 16 22 5 51
11 65 14 105 20 289 72 355 101 17 8 54 23 84 35 59 23 188 86 259 127 48 27
213 134 222 143 3 3 25 21 50 40 298 226 581 588 720 920 17 41 37 89 45 105
28 64 93 295 111 393 2 12 6 34 9 50 8 42 15 99 25 197 9 86 6 423 -4 475 -3
14 -10 68 -16 120 -6 52 -13 113 -16 134 -4 32 -35 182 -59 280 -22 94 -101
300 -160 419 -316 635 -892 1096 -1576 1260 -95 23 -135 30 -300 55 -57 9
-432 15 -440 8z"/>
</g>
</svg>
