<?xml version="1.0" encoding="UTF-8"?>
<svg width="121px" height="156px" viewBox="0 0 121 156" version="1.1" xmlns="http://www.w3.org/2000/svg" xmlns:xlink="http://www.w3.org/1999/xlink">
    <!-- Generator: Sketch 52.5 (67469) - http://www.bohemiancoding.com/sketch -->
    <title>Group 16</title>
    <desc>Created with Sketch.</desc>
    <g id="EXCHANGE" stroke="none" stroke-width="1" fill="none" fill-rule="evenodd" opacity="0.5">
        <g id="Dashboard" transform="translate(-800.000000, -485.000000)">
            <g id="Group-19" transform="translate(92.000000, 467.000000)">
                <g id="Group-18">
                    <g id="Group-16" transform="translate(708.000000, 18.060606)">
                        <path d="M101.765152,1.53030303 C91.3350706,1.54172283 82.7135766,9.66500924 82.0820734,20.0759613 L33.6744377,44.2894201 C30.4493586,42.1556109 26.6685892,41.0160174 22.8015152,41.0121212 C11.8989121,41.0121212 3.06060606,49.8504273 3.06060606,60.7530303 C3.06060606,71.6556333 11.8989121,80.4939394 22.8015152,80.4939394 C26.662022,80.4862712 30.4355585,79.3468377 33.6551598,77.2166405 L82.0820734,101.430101 C82.490103,108.028145 86.1736165,113.984001 91.894697,117.296087 L91.894697,162.117969 C91.5544849,162.313594 91.220182,162.51932 90.8922339,162.734873 L42.4845893,138.521414 C41.8530852,128.110464 33.2315938,119.987179 22.8015152,119.975758 C11.8989121,119.975758 3.06060606,128.814064 3.06060606,139.716667 C3.06060606,150.61927 11.8989121,159.457576 22.8015152,159.457576 C26.6620218,159.449908 30.4355583,158.310475 33.6551598,156.180279 L82.0820734,180.393738 C82.7135776,190.804689 91.3350713,198.927974 101.765152,198.939394 C112.202233,198.927353 120.826494,190.793014 121.44823,180.374461 L169.85587,156.180279 C173.080948,158.314086 176.861716,159.453679 180.728788,159.457576 C191.631391,159.457576 200.469697,150.61927 200.469697,139.716667 C200.469697,128.814064 191.631391,119.975758 180.728788,119.975758 C170.298708,119.987177 161.677214,128.110463 161.04571,138.521414 L112.638069,162.734873 C112.309878,162.525828 111.975577,162.326532 111.635606,162.137246 L111.635606,117.296087 C117.356687,113.984001 121.0402,108.028145 121.44823,101.430101 L169.85587,77.2166405 C173.080948,79.3504488 176.861716,80.4900422 180.728788,80.4939394 C191.631391,80.4939394 200.469697,71.6556333 200.469697,60.7530303 C200.469697,49.8504273 191.631391,41.0121212 180.728788,41.0121212 C170.298707,41.023541 161.677213,49.1468274 161.04571,59.5577795 L112.618792,83.7712363 C109.399192,81.6410406 105.625657,80.5016077 101.765152,80.4939394 C97.8980794,80.497836 94.1173118,81.6374287 90.8922339,83.7712363 L44.87509,60.7530303 L90.8922339,37.7348223 C94.1173116,39.8686306 97.8980792,41.008224 101.765152,41.0121212 C112.667755,41.0121212 121.506061,32.1738152 121.506061,21.2712121 C121.506061,10.3686091 112.667755,1.53030303 101.765152,1.53030303 Z" id="Path" fill="#E6E9FF"></path>
                        <circle id="Oval" fill="#182D9E" cx="101.765152" cy="20.6590909" r="20.6590909"></circle>
                        <circle id="Oval-Copy-4" fill="#182D9E" cx="21.4242424" cy="59.6818182" r="21.4242424"></circle>
                        <circle id="Oval-Copy-5" fill="#182D9E" cx="101" cy="99.469697" r="21.4242424"></circle>
                        <circle id="Oval-Copy-7" fill="#182D9E" cx="21.4242424" cy="140.787879" r="21.4242424"></circle>
                        <path d="M106.973048,23.5404632 C106.974105,18.9831511 99.5286984,19.3320059 99.5286984,16.7695089 C99.5286984,15.9438859 100.298293,15.2313764 101.880825,15.2313764 C103.67267,15.2313764 104.915862,15.7197731 105.919084,16.3043692 L105.919084,13.5177594 C105.262603,13.2228186 104.172696,12.9046207 102.751905,12.8263927 L102.751905,10.7121212 L100.637634,10.7121212 L100.637634,12.906735 L100.63552,12.906735 C99.4578703,13.0801052 98.3161638,13.5357307 97.6004829,14.2218118 C96.8065739,14.9829495 96.4090909,15.9026576 96.4090909,16.9830503 C96.4090909,21.2517644 103.806927,21.3532494 103.806927,23.6926907 C103.806927,24.5246566 102.722305,25.1684522 101.512942,25.1684522 C99.0371303,25.1684522 96.8509736,24.1536019 96.4355193,23.8301184 L96.4355193,26.6896705 C97.5761687,27.2605238 99.3299569,27.5702646 100.636577,27.6273499 L100.637634,27.6262928 L100.637634,29.7405642 L102.751905,29.7405642 L102.751905,27.5533504 C104.078611,27.3873801 105.109318,26.9719258 105.837684,26.3017017 C106.594594,25.602935 106.973048,24.6821698 106.973048,23.5404632 Z" id="Path-Copy-3" fill="#FFFFFF"></path>
                        <path d="M106.973048,103.116221 C106.974105,98.5589087 99.5286984,98.9077635 99.5286984,96.3452665 C99.5286984,95.5196435 100.298293,94.807134 101.880825,94.807134 C103.67267,94.807134 104.915862,95.2955307 105.919084,95.8801268 L105.919084,93.093517 C105.262603,92.7985761 104.172696,92.4803783 102.751905,92.4021502 L102.751905,90.2878788 L100.637634,90.2878788 L100.637634,92.4824925 L100.63552,92.4824925 C99.4578703,92.6558628 98.3161638,93.1114883 97.6004829,93.7975694 C96.8065739,94.5587071 96.4090909,95.4784152 96.4090909,96.5588079 C96.4090909,100.827522 103.806927,100.929007 103.806927,103.268448 C103.806927,104.100414 102.722305,104.74421 101.512942,104.74421 C99.0371303,104.74421 96.8509736,103.729359 96.4355193,103.405876 L96.4355193,106.265428 C97.5761687,106.836281 99.3299569,107.146022 100.636577,107.203107 L100.637634,107.20205 L100.637634,109.316322 L102.751905,109.316322 L102.751905,107.129108 C104.078611,106.963138 105.109318,106.547683 105.837684,105.877459 C106.594594,105.178693 106.973048,104.257927 106.973048,103.116221 Z" id="Path-Copy-4" fill="#FFFFFF"></path>
                        <path d="M27.3972906,63.328342 C27.3983477,58.7710299 19.9529408,59.1198847 19.9529408,56.5573877 C19.9529408,55.7317647 20.7225357,55.0192552 22.3050678,55.0192552 C24.0969129,55.0192552 25.3401045,55.5076519 26.3433263,56.092248 L26.3433263,53.3056382 C25.686845,53.0106973 24.5969381,52.6924995 23.1761477,52.6142714 L23.1761477,50.5 L21.0618762,50.5 L21.0618762,52.6946138 L21.059762,52.6946138 C19.8821128,52.867984 18.7404062,53.3236095 18.0247253,54.0096906 C17.2308164,54.7708283 16.8333333,55.6905364 16.8333333,56.7709291 C16.8333333,61.0396432 24.2311691,61.1411282 24.2311691,63.4805695 C24.2311691,64.3125353 23.1465479,64.956331 21.9371846,64.956331 C19.4613727,64.956331 17.2752161,63.9414807 16.8597617,63.6179972 L16.8597617,66.4775493 C18.0004112,67.0484026 19.7541993,67.3581434 21.0608191,67.4152287 L21.0618762,67.4141716 L21.0618762,69.528443 L23.1761477,69.528443 L23.1761477,67.3412292 C24.502853,67.1752589 25.5335603,66.7598045 26.2619268,66.0895805 C27.018836,65.3908138 27.3972906,64.4700486 27.3972906,63.328342 Z" id="Path-Copy-5" fill="#FFFFFF"></path>
                        <path d="M27.3972906,143.769596 C27.3983477,139.212284 19.9529408,139.561139 19.9529408,136.998642 C19.9529408,136.173019 20.7225357,135.460509 22.3050678,135.460509 C24.0969129,135.460509 25.3401045,135.948906 26.3433263,136.533502 L26.3433263,133.746892 C25.686845,133.451951 24.5969381,133.133753 23.1761477,133.055525 L23.1761477,130.941254 L21.0618762,130.941254 L21.0618762,133.135868 L21.059762,133.135868 C19.8821128,133.309238 18.7404062,133.764863 18.0247253,134.450945 C17.2308164,135.212082 16.8333333,136.13179 16.8333333,137.212183 C16.8333333,141.480897 24.2311691,141.582382 24.2311691,143.921824 C24.2311691,144.753789 23.1465479,145.397585 21.9371846,145.397585 C19.4613727,145.397585 17.2752161,144.382735 16.8597617,144.059251 L16.8597617,146.918803 C18.0004112,147.489657 19.7541993,147.799397 21.0608191,147.856483 L21.0618762,147.855426 L21.0618762,149.969697 L23.1761477,149.969697 L23.1761477,147.782483 C24.502853,147.616513 25.5335603,147.201059 26.2619268,146.530834 C27.018836,145.832068 27.3972906,144.911303 27.3972906,143.769596 Z" id="Path-Copy-6" fill="#FFFFFF"></path>
                    </g>
                </g>
            </g>
        </g>
    </g>
</svg>